<?xml version="1.0" encoding="UTF-8" standalone="no"?>
<svg
   xmlns:dc="http://purl.org/dc/elements/1.1/"
   xmlns:cc="http://creativecommons.org/ns#"
   xmlns:rdf="http://www.w3.org/1999/02/22-rdf-syntax-ns#"
   xmlns:svg="http://www.w3.org/2000/svg"
   xmlns="http://www.w3.org/2000/svg"
   xmlns:sodipodi="http://sodipodi.sourceforge.net/DTD/sodipodi-0.dtd"
   xmlns:inkscape="http://www.inkscape.org/namespaces/inkscape"
   height="235.452"
   width="261.728"
   viewBox="0 0 245.371 220.736"
   version="1.1"
   id="svg4"
   sodipodi:docname="itchio-icon.svg"
   inkscape:version="0.92.4 (5da689c313, 2019-01-14)">
  <metadata
     id="metadata10">
    <rdf:RDF>
      <cc:Work
         rdf:about="">
        <dc:format>image/svg+xml</dc:format>
        <dc:type
           rdf:resource="http://purl.org/dc/dcmitype/StillImage" />
        <dc:title />
      </cc:Work>
    </rdf:RDF>
  </metadata>
  <defs
     id="defs8" />
  <sodipodi:namedview
     pagecolor="#808080"
     bordercolor="#666666"
     borderopacity="1"
     objecttolerance="10"
     gridtolerance="10"
     guidetolerance="10"
     inkscape:pageopacity="0"
     inkscape:pageshadow="2"
     inkscape:window-width="1920"
     inkscape:window-height="1027"
     id="namedview6"
     showgrid="false"
     inkscape:zoom="2.0046549"
     inkscape:cx="139.65327"
     inkscape:cy="115.15187"
     inkscape:window-x="-8"
     inkscape:window-y="22"
     inkscape:window-maximized="1"
     inkscape:current-layer="svg4" />
  <path
     d="M 47.547474,20.062573 C 38.680405,25.327472 21.210549,45.397054 21.044855,50.660297 v 8.712145 c 0,11.043448 10.322683,20.749753 19.695116,20.749753 11.253878,0 20.630453,-9.326868 20.631281,-20.396826 0,11.069958 9.055131,20.396826 20.309837,20.396826 11.255536,0 20.019871,-9.326868 20.019871,-20.396826 0,11.069958 9.62843,20.396826 20.88314,20.396826 h 0.2038 c 11.25554,0 20.88397,-9.326868 20.88397,-20.396826 0,11.069958 8.76516,20.396826 20.01904,20.396826 11.25471,0 20.30984,-9.326868 20.30984,-20.396826 0,11.069958 9.37823,20.396826 20.63128,20.396826 9.37243,0 19.69511,-9.704648 19.69511,-20.749753 v -8.712145 c -0.16569,-5.264071 -17.63555,-25.334482 -26.50096,-30.597724 -27.55974,-0.967648 -46.66581,-1.134998 -75.14101,-1.130856 -28.474365,0.0025 -67.294612,0.447371 -75.139353,1.130856 z m 54.010996,54.858514 a 23.217752,23.217752 0 0 1 -3.960069,5.099206 C 93.350029,84.17422 87.526744,86.749092 81.106963,86.749092 A 23.59636,23.59636 0 0 1 64.580729,80.016979 c -1.53929,-1.507807 -2.709083,-3.120002 -3.780289,-4.997305 l -0.005,0.0033 c -1.070378,1.880617 -2.561616,3.491983 -4.104219,5.001448 a 23.611273,23.611273 0 0 1 -16.526234,6.727141 c -0.773787,0 -1.579056,-0.213744 -2.23023,-0.43743 -0.904685,9.421312 -1.286607,18.425077 -1.421647,24.989847 l -0.0017,0.0373 c -0.01657,3.33374 -0.03314,6.07514 -0.04971,9.88359 0.173978,19.7672 -1.957665,64.06857 8.715459,74.95378 16.53949,3.85651 46.974006,5.61286 77.507111,5.62363 h 0.005 c 30.53228,-0.0108 60.9668,-1.76712 77.50629,-5.62363 10.67312,-10.88604 8.54148,-55.18741 8.71545,-74.9546 -0.0182,-3.80763 -0.0331,-6.54903 -0.0497,-9.8836 l -0.002,-0.0373 c -0.13421,-6.56642 -0.51613,-15.569362 -1.42082,-24.990674 -0.65117,0.223686 -1.45561,0.43743 -2.23023,0.43743 a 23.611273,23.611273 0 0 1 -16.52623,-6.727141 c -1.5426,-1.509465 -3.03384,-3.120002 -4.10505,-5.001448 l -0.005,-0.0033 c -1.07203,1.877304 -2.241,3.490326 -3.78029,4.997305 a 23.594704,23.594704 0 0 1 -16.5254,6.731284 c -6.41896,0 -12.24307,-2.576528 -16.49144,-6.729627 a 23.217752,23.217752 0 0 1 -3.96007,-5.099206 23.188755,23.188755 0 0 1 -3.92361,5.099206 23.602988,23.602988 0 0 1 -16.52789,6.730456 c -0.22369,0 -0.44737,-0.0099 -0.67106,-0.01657 h -0.006 c -0.22369,0.0066 -0.44737,0.01657 -0.67354,0.01657 a 23.602988,23.602988 0 0 1 -16.52789,-6.729627 23.190412,23.190412 0 0 1 -3.92362,-5.099207 z m -16.971951,21.946057 -0.0017,0.0083 h 0.01243 c 6.721342,0.01408 12.692095,0 20.090291,8.074236 5.82246,-0.61058 11.90671,-0.91546 17.99593,-0.90635 h 0.005 c 6.08922,-0.008 12.17347,0.29577 17.99676,0.90635 7.39819,-8.075064 13.36895,-8.06098 20.09029,-8.074236 h 0.0116 l -0.002,-0.0083 c 3.17551,0 15.87838,0 24.7297,24.859766 l 9.50748,34.1038 c 7.04527,25.37093 -2.25592,25.99145 -13.85775,26.01382 -17.20558,-0.64041 -26.7321,-13.13533 -26.7321,-25.62859 -9.52405,1.56083 -20.6346,2.34125 -31.74515,2.34207 h -0.005 c -11.11139,0 -22.22194,-0.78124 -31.745153,-2.34207 0,12.49326 -9.527356,24.98818 -26.732103,25.62859 -11.601834,-0.0224 -20.90219,-0.64206 -13.856918,-26.01382 l 9.509958,-34.10297 C 68.709802,96.867972 81.412667,96.867972 84.588176,96.867972 Z m 38.096991,19.536876 v 0.005 c -0.0166,0.0166 -18.11274,16.63559 -21.36613,22.5467 l 11.85038,-0.47471 v 10.33428 c 0,0.48382 4.75539,0.28665 9.51575,0.0663 h 0.005 c 4.7587,0.22038 9.51492,0.41755 9.51492,-0.0663 v -10.33428 l 11.85038,0.47471 c -3.25422,-5.91111 -21.36613,-22.5467 -21.36613,-22.5467 v -0.005 l -0.002,0.002 z"
     id="path2"
     style="color:#000000;fill:#b84e60;fill-opacity:1;stroke-width:0.8284657"
     inkscape:connector-curvature="0" />
</svg>
