<?xml version="1.0" encoding="UTF-8" standalone="no"?>
<svg
   xmlns:dc="http://purl.org/dc/elements/1.1/"
   xmlns:cc="http://creativecommons.org/ns#"
   xmlns:rdf="http://www.w3.org/1999/02/22-rdf-syntax-ns#"
   xmlns:svg="http://www.w3.org/2000/svg"
   xmlns="http://www.w3.org/2000/svg"
   xmlns:sodipodi="http://sodipodi.sourceforge.net/DTD/sodipodi-0.dtd"
   xmlns:inkscape="http://www.inkscape.org/namespaces/inkscape"
   height="235.452"
   width="261.728"
   viewBox="0 0 245.371 220.736"
   version="1.1"
   id="svg4"
   sodipodi:docname="notebook-icon.svg"
   inkscape:version="0.92.4 (5da689c313, 2019-01-14)">
  <metadata
     id="metadata10">
    <rdf:RDF>
      <cc:Work
         rdf:about="">
        <dc:format>image/svg+xml</dc:format>
        <dc:type
           rdf:resource="http://purl.org/dc/dcmitype/StillImage" />
        <dc:title />
      </cc:Work>
    </rdf:RDF>
  </metadata>
  <defs
     id="defs8">
    <clipPath
       id="clip1">
      <path
         id="path1489"
         d="M 0 276 L 530.972656 276 L 530.972656 551.984375 L 0 551.984375 Z M 0 276 " />
    </clipPath>
  </defs>
  <sodipodi:namedview
     pagecolor="#808080"
     bordercolor="#666666"
     borderopacity="1"
     objecttolerance="10"
     gridtolerance="10"
     guidetolerance="10"
     inkscape:pageopacity="0"
     inkscape:pageshadow="2"
     inkscape:window-width="1920"
     inkscape:window-height="1027"
     id="namedview6"
     showgrid="false"
     inkscape:zoom="1.0023275"
     inkscape:cx="180.65119"
     inkscape:cy="78.02715"
     inkscape:window-x="-8"
     inkscape:window-y="22"
     inkscape:window-maximized="1"
     inkscape:current-layer="svg4" />
  <path
     style="opacity:1;fill:#303030;fill-opacity:1;stroke:none;stroke-width:2.40844798;stroke-linecap:butt;stroke-linejoin:miter;stroke-miterlimit:4;stroke-dasharray:none;stroke-dashoffset:0;stroke-opacity:1;paint-order:markers fill stroke"
     d="M 2.0499933,33.790028 H 242.52393 V 190.33845 l -4.90412,3.83828 -95.90907,-5.3514 -6.07963,3.75002 h -26.67424 l -5.1443,-3.75002 -95.1733689,5.2608 -6.5892078,-6.086 z"
     id="rect874"
     inkscape:connector-curvature="0"
     sodipodi:nodetypes="ccccccccccc" />
  <path
     style="fill:#e0e0e0;fill-opacity:1;stroke:none;stroke-width:1.03360105px;stroke-linecap:butt;stroke-linejoin:miter;stroke-opacity:1"
     d="m 118.21691,284.8369 -1.42323,2.16007 -2.2509,1.0982 -0.52891,2.02481 -1.76844,0.27859 -1.05579,1.87542 0.58142,1.45754 -1.92996,0.61572 -0.29675,2.2933 0.68435,1.67153 -1.30613,0.56928 -0.75905,1.68162 1.09821,2.36195 1.23548,0.004 0.30683,1.82293 0.87819,0.91046 0.50265,1.61904 0.93671,1.2274 0.19792,1.8512 -9.28223,-2.83635 -5.412264,0.2584 -6.187491,-2.83637 -7.219047,-0.51478 -3.351139,-3.35113 -5.672674,-2.06316 -5.412278,-2.57795 h -3.609528 l -8.250642,-2.83627 -1.031591,-1.28796 -0.256373,-1.80477 -1.546372,-1.03158 -2.063161,-2.06317 -4.641116,-0.51478 -3.351113,-1.03158 -1.804777,0.77318 4.641121,3.60953 -0.516798,0.2584 -3.092732,-1.54636 -1.287968,1.02956 3.092722,2.06317 2.836354,2.06316 -3.867922,-1.93396 -0.902388,0.64398 2.19236,1.93396 3.480327,1.80477 4.382714,2.70715 1.546373,0.25637 7.86303,3.48034 5.414289,3.60953 4.124304,1.67556 2.834334,0.5168 2.450764,1.28797 3.48032,0.2584 3.351142,1.54636 2.577941,1.03159 2.061144,0.25839 5.285081,2.70715 -2.834326,-0.5168 h -5.15586 l -3.094782,1.03158 -1.804761,0.12921 -2.190338,-0.90239 -1.933963,-0.64398 h -3.480332 l -2.190348,0.38558 -2.192367,-0.64398 -5.026681,-0.1292 -2.448745,0.64398 -3.60952,0.1292 -4.253514,0.1292 -3.351135,-2.19035 -1.419174,-0.64599 -2.06114,0.1292 -1.804777,-1.28797 -1.933956,0.12717 -3.738732,0.1292 v 0.51681 l 1.419184,1.03158 1.546363,-0.12921 0.966984,0.48248 -1.354592,0.29071 -0.385578,0.38558 -2.321564,-0.12717 -2.834326,0.51478 -0.773176,0.64398 0.90036,1.16079 3.094739,0.1292 2.577951,0.1292 v 0.25638 l -5.285093,0.2584 -0.387597,1.03158 0.646002,0.77318 h 5.285082 l 0.127169,0.2584 -3.351124,0.12717 -0.51478,0.90239 1.675563,0.2584 5.285091,0.25839 4.382707,0.77319 2.707148,-0.1292 1.417168,-0.51479 5.285095,0.64399 1.546356,0.2584 4.770316,1.28796 3.865896,0.2584 h 4.253533 4.253497 l 1.80478,-0.77318 1.933962,-0.2584 1.933963,0.3876 2.965541,-0.3876 2.061151,0.2584 h 1.289979 l 1.546377,1.15876 3.609516,0.2584 5.155872,0.1292 h 2.44875 l 1.80478,3.60954 0.7732,2.06114 1.16076,1.80477 v 2.70715 l 1.28798,4.1243 1.28998,4.12633 1.28796,2.57797 -0.51477,0.64397 -1.54636,6.05828 0.12722,1.41716 0.51681,1.16079 -1.03163,0.51478 -0.64395,2.19237 -0.64601,3.48034 -0.64396,2.06114 -0.644,1.67759 -0.38762,1.80274 -2.8343,4.51188 -2.06319,3.60955 -0.64396,1.67559 -1.41919,4.7703 -1.417174,2.96353 -0.902379,3.22392 -0.514776,2.31958 0.256392,1.93395 -1.029579,1.93192 -2.063153,2.3216 -1.933953,2.06113 -0.77319,1.67557 -1.417191,1.67761 -2.577921,2.96351 -3.094744,3.60951 -2.319559,3.35116 -1.1608,2.57793 -1.417142,4.12432 -1.417176,4.89952 -1.160783,5.41228 -0.643987,3.35314 -0.387594,2.44875 -1.287972,1.93397 -0.258412,1.41717 -1.289972,0.90237 -1.417155,1.03158 -1.546362,-0.25841 -1.419179,0.12908 -0.77319,1.28798 0.5168,1.03159 0.902377,0.64397 1.029561,0.90238 1.419199,0.77318 0.773187,0.64601 1.287954,0.51478 1.419178,0.77316 1.804752,0.77321 h 1.031598 l 1.417176,-1.54637 -0.129328,-1.28799 -0.25842,-1.67555 1.419202,-2.32156 0.514779,-1.54636 0.387602,-2.57799 0.12933,-2.06312 2.061139,-3.35117 2.06316,-3.3511 1.546359,-2.83634 3.092743,-3.22195 2.063167,-3.48031 1.289964,-2.96555 0.256401,-2.44874 1.54838,-2.83435 1.287976,-2.19234 1.675541,-1.80479 2.192374,-1.80475 2.06114,-2.57794 0.77321,-1.41718 1.67556,-1.54636 1.67553,-2.45077 1.03162,-2.31954 0.51677,-1.16079 0.64399,3.99713 0.77316,3.48033 0.51482,1.54636 0.51681,2.06317 -0.64401,2.31953 -0.77519,5.92911 -0.38559,2.19236 -0.38759,2.06113 -0.64398,2.44875 -1.03159,3.48033 -0.12935,3.73874 0.38761,2.83633 0.9024,3.86592 1.16076,2.83635 1.02957,3.48034 0.77521,2.83633 1.93192,3.35114 1.41918,2.44875 0.3856,2.06319 -0.3856,1.80473 0.51479,1.54636 -1.1608,0.38559 -0.25636,1.16078 0.12935,1.28998 1.02958,2.06114 0.77316,0.5168 0.90241,0.25641 1.16077,-0.25641 1.03157,0.38561 1.03158,-0.25641 0.90241,0.38557 h 1.54636 l 0.64396,-0.51477 0.64399,0.644 1.93398,0.12937 1.16077,-0.77321 3.09275,0.25641 2.83632,-0.7732 1.67558,-0.38557 4.06508,-0.26578 1.62052,0.61015 4.20367,-0.69887 0.0463,-0.7822 0.4524,0.60024 1.5514,-0.0322 0.58884,-0.58111 0.42375,0.34545 1.9235,-0.2009 1.48456,-0.67262 0.17657,-0.79782 -0.37738,-1.12567 -0.46581,-0.72875 -1.13909,0.24898 -1.65332,0.30045 -4.29739,-0.19855 -2.37592,-0.39933 -0.99121,-0.80378 -2.65829,-1.1343 -1.54639,-0.90237 -1.16076,-2.57798 -1.03156,-2.96555 -0.38561,-3.3511 0.51479,-5.1559 0.12935,-5.28511 -0.2584,-5.0267 -0.644,-3.48032 0.25841,-4.2535 0.7732,-2.31957 0.12936,-1.41916 1.28792,-2.44875 v -1.54637 l 0.12935,-2.31954 -0.12935,-2.83634 1.29001,-2.70718 0.90237,-2.96555 0.90236,-3.09272 0.2564,-1.16076 1.80479,3.99712 1.67554,3.35114 1.1608,2.19035 1.41716,2.32154 0.7752,3.35115 1.28795,3.60953 1.16076,3.99511 1.28801,3.48033 1.54638,2.31952 2.45074,1.6756 0.64399,1.03156 1.54635,3.73872 1.29,2.44876 2.31953,2.06315 2.96556,2.57797 1.54636,3.22192 1.41716,2.06316 v 2.44874 l 0.77316,2.57795 1.67557,1.03162 2.32157,-0.51683 1.28798,-1.03159 1.03157,-1.02957 1.67559,-0.90236 1.54636,0.25638 2.19233,-0.9024 0.38561,-0.77316 1.03157,-0.64397 1.54637,-0.77319 1.03157,-1.41715 1.0316,-0.12936 0.90237,-0.64602 v -1.02956 l -0.77317,-1.03156 -0.77319,-0.25841 -1.28998,-0.38556 -1.93395,0.25637 -1.5464,0.90239 -1.67554,0.25839 -2.83635,-0.25839 -1.93196,-0.7732 -1.03158,-1.03157 -1.41918,-2.31954 -1.15876,-2.44875 -2.06316,-5.92908 -1.67558,-5.41433 -2.19035,-4.89747 -2.19234,-3.09473 -2.31954,-3.22193 -0.90239,-1.67558 -0.64399,-1.80478 -0.77519,-2.19237 -0.12723,-1.54633 -0.2584,-0.51477 -0.12908,-1.29001 -0.51477,-1.41715 -1.03159,-0.77319 -1.18905,-2.11362 -0.17356,-1.86939 0.31492,-2.03692 -0.24631,-1.6796 -0.48044,-2.11363 -1.31018,-4.24344 -1.04978,-3.84167 -1.43733,-3.64587 -2.20248,-2.31146 -0.68636,-1.95415 -1.61503,-2.93124 -0.12494,-2.1964 -0.2564,-1.80275 -0.38756,-1.67759 -0.64402,-2.06114 -0.64397,-3.48034 -0.64599,-2.19235 -1.03157,-0.51479 0.51681,-1.16079 0.12935,-1.41716 -1.54638,-6.05828 -0.51679,-0.64397 1.28996,-2.57797 1.28796,-4.12632 1.29001,-4.12431 v -2.70709 l 1.15876,-1.80476 0.77318,-2.06115 1.80476,-3.60953 h 2.45076 l 4.3807,-0.12921 3.60954,-0.2584 1.54837,-1.15876 h 1.28796 l 2.06317,-0.2584 2.96352,0.3876 1.93397,-0.3876 1.93397,0.2584 1.80474,0.77318 h 4.25352 4.25352 l 3.8659,-0.2584 4.77032,-1.28796 1.54639,-0.2584 5.28508,-0.64398 1.41715,0.51478 2.70717,0.1292 4.3827,-0.77318 5.2851,-0.25841 1.67557,-0.25839 -0.51478,-0.90239 -3.35114,-0.12717 0.12936,-0.2584 h 5.28306 l 0.64603,-0.77318 -0.38763,-1.03158 -5.28511,-0.2584 v -0.25638 l 2.57797,-0.1292 3.09477,-0.1292 0.90236,-1.16079 -0.77317,-0.64398 -2.83636,-0.51478 -2.32156,0.12717 -0.38557,-0.38558 -1.3526,-0.29071 0.96499,-0.48248 1.54838,0.1292 1.41717,-1.03158 v -0.5168 l -3.73876,-0.1292 -1.93395,-0.12717 -1.80274,1.28796 -2.06319,-0.1292 -1.41712,0.646 -3.35316,2.19035 -4.25353,-0.1292 -3.60752,-0.1292 -2.45075,-0.64398 -5.0267,0.1292 -2.19034,0.64398 -2.19238,-0.38559 h -3.48033 l -1.93395,0.64399 -2.19036,0.90238 -1.80474,-0.1292 -3.09275,-1.03158 h -5.15588 l -2.83632,0.5168 5.28506,-2.70715 2.06117,-0.2584 2.57792,-1.03158 3.35316,-1.54637 3.47829,-0.2584 2.45078,-1.28796 2.83433,-0.5168 4.12632,-1.67557 5.41229,-3.60953 7.86303,-3.48033 1.54837,-0.25638 4.38275,-2.70715 3.47829,-1.80476 2.19238,-1.93397 -0.9024,-0.64398 -3.86793,1.93397 2.83637,-2.06317 3.09474,-2.06316 -1.28999,-1.02956 -3.09275,1.54636 -0.51678,-0.2584 4.64113,-3.60954 -1.80479,-0.77318 -3.35112,1.03158 -4.6411,0.51479 -2.06116,2.06317 -1.5484,1.03158 -0.25634,1.80476 -1.03161,1.28797 -8.25063,2.83634 h -3.60753 l -5.4143,2.57795 -5.67268,2.06317 -3.35113,3.35112 -7.21707,0.51479 -6.18744,2.83635 -5.41433,-0.2584 -9.2802,2.83634 0.19574,-1.85119 0.93873,-1.22741 0.50063,-1.61904 0.87818,-0.91045 0.30887,-1.82294 1.23345,-0.004 1.10023,-2.36194 -0.76109,-1.68162 -1.30613,-0.56929 0.68437,-1.67152 -0.29482,-2.29335 -1.93195,-0.61572 0.58341,-1.45754 -1.058,-1.87542 -1.76845,-0.27859 -0.52889,-2.02481 -2.2509,-1.0982 -1.42325,-2.16007 -3.26833,0.45826 -3.28857,0.31492 z m 5.15588,104.92468 0.38761,2.32157 -0.12922,2.19036 0.38557,1.54634 0.38761,1.54837 0.12921,3.60754 -0.3876,3.09475 -0.12936,2.44874 0.25842,1.54634 -0.64396,4.12635 -0.90239,5.28309 -1.1608,6.18745 0.12936,2.57794 0.25838,2.83635 1.02959,2.06317 1.03155,2.06117 v 2.83633 l 0.25842,3.22195 0.9024,3.9971 1.54633,3.35113 0.644,2.57795 -0.12709,2.83635 -0.90235,2.44876 -0.7752,-0.64398 -1.02959,-0.90238 -1.80474,-2.57794 0.38556,-2.32158 -1.28792,-1.41718 -1.29,-2.57794 -1.03158,-3.09474 0.38761,-4.3827 -0.7732,-2.96356 v -1.80473 l 0.38559,-1.41718 0.25839,-2.96554 -0.38561,-3.09274 -0.64598,-2.70715 -0.77318,-2.32158 0.38762,-3.2219 0.38556,-1.41716 v -1.16079 l 0.51679,-0.90241 0.12935,-1.03156 v -1.02957 l 0.5148,-1.03159 v -0.90238 l 0.51479,-0.25837 0.77519,-0.90241 -0.3876,-1.80477 c 0,0 0.77317,-1.28915 0.77317,-1.80473 0,-0.5156 0.12936,-1.6756 0.12936,-1.6756 v -2.70712 -2.19036 l -0.25841,-3.48034 0.77319,-1.93397 z"
     id="path853"
     inkscape:connector-curvature="0"
     sodipodi:nodetypes="cccccccccccccccccccccccccccccccccccccccccccccccccccccccccccccccccccccccccccccccccccccccccccccccccccccccccccccccccccccccccccccccccccccccccccccccccccccccccccccccccccccccccccccccccccccccccccccccccccccccccccccccccccccccccccccccccccccccccccccccccccccccccccccccccccccccccccccccccccccccccccccccccccccccccccccccccccccccccccccccccccccccccccccccccccccccccccccccccccccccccccccccccccccccccccccccccccccccccccccccccccccccccccccccccccccccccccccccccccccccccccccccccccccccccccccccccccccccccccccccccccccccccccccccccccccccccccccccccccccccccccccccscccccc" />
  <circle
     style="opacity:1;fill:none;fill-opacity:1;stroke:#e0e0e0;stroke-width:1.87500763;stroke-linecap:butt;stroke-linejoin:miter;stroke-miterlimit:4;stroke-dasharray:none;stroke-dashoffset:0;stroke-opacity:1;paint-order:markers fill stroke"
     id="path861"
     cx="124.87226"
     cy="353.70923"
     r="106.8233" />
  <rect
     style="opacity:1;fill:none;fill-opacity:1;stroke:#e0e0e0;stroke-width:1.87500763;stroke-linecap:butt;stroke-linejoin:miter;stroke-miterlimit:4;stroke-dasharray:none;stroke-dashoffset:0;stroke-opacity:1;paint-order:markers fill stroke"
     id="rect863"
     width="182.25034"
     height="180.42624"
     x="32.42688"
     y="280.22705" />
  <path
     style="opacity:1;fill:#f7f7f7;fill-opacity:1;stroke:none;stroke-width:1.54570055;stroke-linecap:butt;stroke-linejoin:miter;stroke-miterlimit:4;stroke-dasharray:none;stroke-dashoffset:0;stroke-opacity:1;paint-order:markers fill stroke"
     d="m 16.805407,31.443001 75.791957,-7.50003 29.126946,7.50003 V 175.7177 H 16.805407 Z"
     id="rect868"
     inkscape:connector-curvature="0"
     sodipodi:nodetypes="cccccc" />
  <path
     style="opacity:1;fill:#f7f7f7;fill-opacity:1;stroke:none;stroke-width:1.54570055;stroke-linecap:butt;stroke-linejoin:miter;stroke-miterlimit:4;stroke-dasharray:none;stroke-dashoffset:0;stroke-opacity:1;paint-order:markers fill stroke"
     d="m 123.10745,31.443001 29.35084,-7.50003 75.56807,7.50003 V 175.7177 H 123.10745 Z"
     id="rect870"
     inkscape:connector-curvature="0"
     sodipodi:nodetypes="cccccc" />
  <path
     style="fill:none;stroke:#000000;stroke-width:0.93750381px;stroke-linecap:butt;stroke-linejoin:miter;stroke-opacity:1"
     d="m 152.92595,52.845395 h 61.26391"
     id="path882"
     inkscape:connector-curvature="0" />
  <path
     inkscape:connector-curvature="0"
     id="path884"
     d="m 152.92595,71.595472 h 61.26391"
     style="fill:none;stroke:#000000;stroke-width:0.93750381px;stroke-linecap:butt;stroke-linejoin:miter;stroke-opacity:1" />
  <path
     style="fill:none;stroke:#000000;stroke-width:0.93750381px;stroke-linecap:butt;stroke-linejoin:miter;stroke-opacity:1"
     d="m 152.92595,90.345549 h 61.26391"
     id="path886"
     inkscape:connector-curvature="0" />
  <path
     inkscape:connector-curvature="0"
     id="path888"
     d="m 152.92595,109.09563 h 61.26391"
     style="fill:none;stroke:#000000;stroke-width:0.93750381px;stroke-linecap:butt;stroke-linejoin:miter;stroke-opacity:1" />
  <path
     inkscape:connector-curvature="0"
     id="path890"
     d="M 31.050442,52.845395 H 92.31434"
     style="fill:none;stroke:#000000;stroke-width:0.93750381px;stroke-linecap:butt;stroke-linejoin:miter;stroke-opacity:1" />
  <path
     style="fill:none;stroke:#000000;stroke-width:0.93750381px;stroke-linecap:butt;stroke-linejoin:miter;stroke-opacity:1"
     d="M 31.050442,71.595472 H 92.31434"
     id="path892"
     inkscape:connector-curvature="0" />
  <path
     sodipodi:nodetypes="ccccccc"
     inkscape:connector-curvature="0"
     id="path902"
     d="m 123.10745,173.94358 29.35084,-7.50003 75.56807,7.50003 v 7.39914 l -74.16508,-3.75002 -30.75383,3.75002 z"
     style="opacity:1;fill:#c0c0c0;fill-opacity:1;stroke:none;stroke-width:1.54570055;stroke-linecap:butt;stroke-linejoin:miter;stroke-miterlimit:4;stroke-dasharray:none;stroke-dashoffset:0;stroke-opacity:1;paint-order:markers fill stroke" />
  <path
     sodipodi:nodetypes="ccccccc"
     inkscape:connector-curvature="0"
     id="path904"
     d="m 16.805407,173.94358 75.791957,-7.50003 29.126946,7.50003 v 7.39914 l -27.723956,-3.75002 -77.194947,3.75002 z"
     style="opacity:1;fill:#c0c0c0;fill-opacity:1;stroke:none;stroke-width:1.54570055;stroke-linecap:butt;stroke-linejoin:miter;stroke-miterlimit:4;stroke-dasharray:none;stroke-dashoffset:0;stroke-opacity:1;paint-order:markers fill stroke" />
</svg>
