<?xml version="1.0" encoding="UTF-8" standalone="no"?>
<svg
   xmlns:dc="http://purl.org/dc/elements/1.1/"
   xmlns:cc="http://creativecommons.org/ns#"
   xmlns:rdf="http://www.w3.org/1999/02/22-rdf-syntax-ns#"
   xmlns:svg="http://www.w3.org/2000/svg"
   xmlns="http://www.w3.org/2000/svg"
   xmlns:sodipodi="http://sodipodi.sourceforge.net/DTD/sodipodi-0.dtd"
   xmlns:inkscape="http://www.inkscape.org/namespaces/inkscape"
   height="235.452"
   width="261.728"
   viewBox="0 0 245.371 220.736"
   version="1.1"
   id="svg4"
   sodipodi:docname="scratch-icon.svg"
   inkscape:version="0.92.4 (5da689c313, 2019-01-14)">
  <metadata
     id="metadata10">
    <rdf:RDF>
      <cc:Work
         rdf:about="">
        <dc:format>image/svg+xml</dc:format>
        <dc:type
           rdf:resource="http://purl.org/dc/dcmitype/StillImage" />
        <dc:title></dc:title>
      </cc:Work>
    </rdf:RDF>
  </metadata>
  <defs
     id="defs8" />
  <sodipodi:namedview
     pagecolor="#808080"
     bordercolor="#666666"
     borderopacity="1"
     objecttolerance="10"
     gridtolerance="10"
     guidetolerance="10"
     inkscape:pageopacity="0"
     inkscape:pageshadow="2"
     inkscape:window-width="1920"
     inkscape:window-height="1027"
     id="namedview6"
     showgrid="false"
     inkscape:zoom="2.0046549"
     inkscape:cx="62.333226"
     inkscape:cy="121.63678"
     inkscape:window-x="-8"
     inkscape:window-y="22"
     inkscape:window-maximized="1"
     inkscape:current-layer="svg4" />
  <path
     sodipodi:type="inkscape:offset"
     inkscape:radius="5.5686998"
     inkscape:original="M 148.74023 31.478516 C 147.06517 31.59038 145.41219 32.339763 144.04297 33.708984 C 142.01447 35.737496 141.81447 36.489674 142.26953 40.332031 C 142.65173 43.559077 142.43696 45.012288 141.43359 46.015625 C 139.62821 47.820997 139.59468 47.809474 135.71094 44.300781 C 128.44127 37.733058 118.83755 35.047798 108.84961 36.787109 C 100.2138 38.290978 95.51291 41.653749 92.375 48.574219 C 87.62756 59.044474 83.827106 78.131359 84.660156 87.318359 C 85.267846 94.020149 89.50588 102.99032 93.5 106.03125 C 100.41904 111.29909 104.17915 112.49958 119.34766 114.27734 C 133.0971 115.88879 138.37043 117.59338 143.46094 122.07422 C 148.74173 126.72255 150.79739 131.28033 150.82227 138.39453 C 150.86117 149.50237 147.18559 154.10588 134.98047 158.23828 C 125.03449 161.60578 116.7952 162.08918 112.11523 159.58008 C 103.50349 154.96297 96.914763 143.82928 95.064453 130.76367 C 93.991383 123.18652 92.363809 121.45209 86.824219 121.98438 C 84.148899 122.24143 81.844336 123.08805 80.574219 124.28125 L 78.5625 126.16992 L 78.611328 155.33398 L 78.658203 184.5 L 80.806641 186.78516 C 83.246298 189.38249 85.995317 189.67303 89.748047 187.73242 C 93.602507 185.7392 94.486965 183.29517 94.546875 174.47461 C 94.609575 165.24018 95.37599 164.48672 100.96094 168.16602 C 104.77645 170.67962 113.26574 173.12891 118.16211 173.12891 C 122.94474 173.12891 140.84389 168.40444 146.91797 165.53906 C 154.43399 161.99348 161.80219 154.39067 163.60547 148.31836 C 166.5698 138.3364 164.46241 126.35946 158.14648 117.28906 C 151.94303 108.38018 142.55407 103.98616 126.04297 102.26367 C 109.07232 100.49324 104.88517 98.743345 102.0918 92.25 C 98.89703 84.823558 98.89659 78.673689 102.0918 66.423828 C 105.34763 53.941631 106.85588 50.995661 111.04102 48.931641 C 115.09768 46.930987 119.5546 48.078224 124.26953 52.337891 C 128.8878 56.510213 135.25408 71.557789 137.63086 83.917969 C 138.74941 89.734791 139.90038 93.371061 140.84766 94.082031 C 143.98775 96.438821 152.00477 94.383382 152.89844 90.992188 C 153.12448 90.134388 153.35442 85.68406 153.41016 81.103516 C 153.46586 76.522985 153.89974 69.349768 154.37305 65.162109 C 154.84634 60.974449 155.31773 52.413017 155.42188 46.136719 C 155.60371 35.180144 155.52942 34.658657 153.57031 33.072266 C 152.11255 31.89183 150.4153 31.366651 148.74023 31.478516 z "
     style="fill:#ffffff;fill-opacity:1;stroke-width:0.88567537"
     id="path872"
     d="m 148.36914,25.921875 c -3.08185,0.205812 -6.02825,1.614186 -8.26367,3.849609 -1.19289,1.192901 -2.6526,2.859792 -3.25977,5.128907 -0.30677,1.146494 -0.39247,2.163894 -0.37109,3.154297 -8.14403,-5.995223 -18.28408,-8.546864 -28.58008,-6.753907 -9.681585,1.685984 -16.870268,6.767007 -20.591796,14.97461 -5.336966,11.770426 -9.222706,30.150052 -8.189453,41.544921 0.388805,4.287863 1.787791,8.637938 3.66211,12.605468 1.874319,3.96753 4.010045,7.49304 7.351562,10.03711 3.684139,2.80494 7.145041,4.91209 11.509767,6.30469 4.36472,1.3926 9.38715,2.14146 17.0625,3.04101 13.462,1.57777 16.89747,2.76192 21.08203,6.44532 4.46364,3.92904 5.4515,6.11034 5.47266,12.16015 0.0173,4.93701 -0.70434,7.27814 -2.11329,9.04297 -1.40894,1.76484 -4.27686,3.58664 -9.94531,5.50586 -9.21446,3.11983 -16.43054,2.79127 -18.44922,1.70899 -6.36858,-3.41447 -12.51341,-13.00617 -14.16797,-24.68946 -0.583068,-4.11718 -1.11326,-7.49346 -3.898432,-10.46094 -2.785173,-2.96748 -6.993966,-3.40627 -10.388672,-3.08007 -3.531007,0.33926 -6.767279,1.18649 -9.529297,3.78125 v -0.002 L 74.75,122.10938 a 5.5692567,5.5692567 0 0 0 -1.755859,4.07031 l 0.04883,29.16406 0.04687,29.16602 a 5.5692567,5.5692567 0 0 0 1.511718,3.80468 L 76.75,190.59961 c 1.8634,1.98303 4.528257,3.58916 7.449219,3.89844 2.921913,0.30937 5.63753,-0.54113 8.107422,-1.81836 2.597754,-1.34335 5.343797,-3.92673 6.5,-7.1211 1.156203,-3.19437 1.277399,-6.45397 1.308589,-11.04687 0.002,-0.22863 0.0168,-0.2682 0.0195,-0.48438 5.36423,2.90667 12.09952,4.66993 18.02734,4.66993 4.22497,0 9.301,-1.31708 15.31445,-2.9043 6.01346,-1.58722 11.93853,-3.38745 15.81641,-5.2168 9.02406,-4.25698 17.02974,-11.84719 19.65039,-20.67187 3.51544,-11.83774 1.07106,-25.31666 -6.22656,-35.79688 -4.30472,-6.18208 -10.21344,-10.49851 -17.91016,-13.38476 1.4744,-0.0622 2.92098,-0.28545 4.29102,-0.63672 1.78591,-0.457901 3.50265,-1.143143 5.12304,-2.250002 1.6204,-1.10686 3.35159,-2.726151 4.0625,-5.423829 0.29956,-1.136786 0.26639,-1.47347 0.33008,-2.189453 0.0637,-0.715982 0.11724,-1.547262 0.16602,-2.490234 0.0975,-1.885944 0.17048,-4.199055 0.19922,-6.560547 0.0523,-4.299636 0.49147,-11.524912 0.92773,-15.384766 0.52207,-4.619279 0.9766,-13.087581 1.08398,-19.558593 0.0911,-5.492334 0.19343,-8.301565 -0.17773,-10.919922 -0.37116,-2.618357 -2.55356,-5.605121 -3.73828,-6.564453 -2.47285,-2.002412 -5.62426,-3.02801 -8.70508,-2.822266 z m -33.6543,27.609375 c 0.38226,-0.03832 0.77996,0.01333 1.30469,0.148438 1.04947,0.270208 2.62324,1.079591 4.51758,2.791015 0.7826,0.707036 3.80918,5.28226 6.125,10.755859 2.31581,5.4736 4.40658,12.055983 5.5,17.742188 0.58553,3.044923 1.17946,5.565116 1.83203,7.626953 0.32628,1.030919 0.65974,1.942991 1.10156,2.851563 0.44183,0.908571 0.78365,1.867135 2.41016,3.08789 0.029,0.02173 0.057,0.02747 0.0859,0.04883 -3.39221,-0.798204 -6.99388,-1.4445 -10.97071,-1.859375 -8.34401,-0.870473 -13.30888,-1.824875 -15.72265,-2.833984 -2.41378,-1.009109 -2.62211,-1.356148 -3.69141,-3.841797 -2.75383,-6.401445 -2.80686,-10.40945 0.27344,-22.21875 1.60191,-6.141422 2.7986,-9.770906 3.69531,-11.523437 0.89671,-1.752531 0.94015,-1.696342 2.32813,-2.38086 0.46203,-0.227864 0.82867,-0.356214 1.21093,-0.394531 z"
     transform="matrix(1.1040213,0,0,1.1040213,-12.657787,-10.999421)" />
  <path
     style="fill:#f8aa3c;stroke-width:0.97780448"
     d="m 75.649749,219.3502 c -7.656293,-1.64234 -16.364801,-8.34034 -19.834743,-15.25554 -3.258592,-6.49394 -3.65398,-11.17517 -3.811215,-45.1221 -0.179279,-38.69453 -0.161351,-38.80092 8.025675,-47.68275 l 4.110081,-4.45888 -1.579098,-3.94657 C 55.707726,85.757684 59.306617,54.063148 70.852763,29.856208 75.592689,19.918739 86.249787,12.053711 99.73412,8.541486 c 6.57269,-1.7119671 19.65566,-1.9291767 26.59247,-0.4414915 4.54058,0.9737689 5.08212,0.8643162 9.45938,-1.9116305 14.73178,-9.3426323 34.37353,-4.2097745 42.31394,11.057635 2.28853,4.400291 2.63116,6.336794 2.95675,16.710697 0.20253,6.453505 -0.33053,19.048235 -1.1846,27.988305 -0.85405,8.940043 -1.55284,19.449271 -1.55284,23.353858 0,3.904561 -0.49852,8.763142 -1.10782,10.796809 -1.06564,3.556771 -0.92916,3.966332 3.58336,10.754152 2.58017,3.88112 6.03334,10.84848 7.67369,15.48304 2.68129,7.5755 2.97779,9.56208 2.93583,19.67125 -0.052,12.54021 -2.00226,20.13414 -7.31084,28.46769 -6.36327,9.98923 -19.51842,19.78254 -32.76195,24.38949 -11.16879,3.88523 -25.17488,6.78632 -32.76981,6.7876 l -7.445,9.7e-4 -2.74604,3.96257 c -7.10213,10.24865 -21.265691,16.19506 -32.720891,13.73777 z m 10.775422,-23.08807 c 4.255407,-2.20056 5.232589,-4.90014 5.298724,-14.63822 0.06928,-10.19501 0.915122,-11.02702 7.081025,-6.965 4.2124,2.77507 13.58587,5.47956 18.99156,5.47956 5.28013,0 25.04134,-5.21551 31.74725,-8.37895 8.29785,-3.91439 16.43075,-12.30793 18.42161,-19.01188 3.27268,-11.0203 0.94661,-24.24284 -6.02631,-34.25676 -6.84874,-9.83559 -17.21485,-14.68732 -35.44346,-16.58899 -18.73595,-1.954589 -23.35788,-3.887135 -26.44182,-11.055926 -3.527092,-8.19895 -3.526938,-14.988083 6.4e-4,-28.51219 3.5945,-13.780611 5.25833,-17.033209 9.87881,-19.311931 4.47864,-2.208765 9.40006,-0.941332 14.60544,3.761431 5.09867,4.606332 12.12731,21.218252 14.75133,34.864154 1.2349,6.421895 2.50555,10.437055 3.55137,11.221981 3.46672,2.601946 12.31692,0.332372 13.30355,-3.411579 0.24956,-0.94703 0.50409,-5.859437 0.56563,-10.916455 0.0615,-5.057004 0.53938,-12.977206 1.06192,-17.600471 0.52252,-4.623265 1.04414,-14.075251 1.15911,-21.004418 0.20076,-12.096292 0.11929,-12.671199 -2.04361,-14.422608 -3.2188,-2.606452 -7.495,-2.320873 -10.51829,0.702427 -2.23951,2.23952 -2.46215,3.070225 -1.95975,7.312269 0.42196,3.562728 0.18659,5.16599 -0.92115,6.273695 -1.99318,1.993169 -2.03148,1.981682 -6.31921,-1.89199 -8.02587,-7.250906 -18.62802,-10.217204 -29.65492,-8.296967 -9.534116,1.660303 -14.723459,5.373406 -18.187779,13.013753 -5.241267,11.559384 -9.437423,32.631638 -8.517719,42.774281 0.670903,7.398919 5.349188,17.303544 9.758775,20.660794 7.638765,5.81581 11.790983,7.14028 28.537333,9.10297 15.17968,1.77907 21.00022,3.66126 26.62025,8.6082 5.83011,5.13186 8.09969,10.1635 8.12716,18.01773 0.0429,12.26329 -4.01509,17.34657 -17.4898,21.90883 -10.98057,3.71779 -20.07669,4.25164 -25.24348,1.48154 -9.50754,-5.09739 -16.780553,-17.39006 -18.823342,-31.81477 -1.184683,-8.36533 -2.982922,-10.28111 -9.09874,-9.69345 -2.953617,0.2838 -5.49655,1.21854 -6.898781,2.53586 l -2.220852,2.0864 0.05267,32.19804 0.05267,32.19806 2.370494,2.52369 c 2.693441,2.86751 5.72853,3.18936 9.871633,1.04689 z"
     id="path855"
     inkscape:connector-curvature="0" />
</svg>
