<?xml version="1.0" encoding="UTF-8" standalone="no"?>
<!-- Created with Inkscape (http://www.inkscape.org/) -->

<svg
   xmlns:dc="http://purl.org/dc/elements/1.1/"
   xmlns:cc="http://creativecommons.org/ns#"
   xmlns:rdf="http://www.w3.org/1999/02/22-rdf-syntax-ns#"
   xmlns:svg="http://www.w3.org/2000/svg"
   xmlns="http://www.w3.org/2000/svg"
   xmlns:sodipodi="http://sodipodi.sourceforge.net/DTD/sodipodi-0.dtd"
   xmlns:inkscape="http://www.inkscape.org/namespaces/inkscape"
   width="1536"
   height="1280"
   viewBox="0 0 1536 1280"
   version="1.1"
   id="svg8"
   inkscape:version="0.92.4 (5da689c313, 2019-01-14)"
   sodipodi:docname="float-pen-letters.svg"
   inkscape:export-filename="C:\Users\cadet\Pictures\float-pen\float-pen-letters.png"
   inkscape:export-xdpi="96"
   inkscape:export-ydpi="96">
  <defs
     id="defs2" />
  <sodipodi:namedview
     id="base"
     pagecolor="#808080"
     bordercolor="#666666"
     borderopacity="1.0"
     inkscape:pageopacity="1"
     inkscape:pageshadow="2"
     inkscape:zoom="0.28588106"
     inkscape:cx="567.36839"
     inkscape:cy="1054.757"
     inkscape:document-units="px"
     inkscape:current-layer="layer1"
     showgrid="true"
     units="px"
     width="1216px"
     inkscape:window-width="1920"
     inkscape:window-height="1027"
     inkscape:window-x="-8"
     inkscape:window-y="22"
     inkscape:window-maximized="1"
     showguides="true"
     inkscape:snap-object-midpoints="true">
    <inkscape:grid
       type="xygrid"
       id="grid815"
       spacingx="32"
       spacingy="32"
       empspacing="2"
       color="#ffffff"
       opacity="0.0627451"
       empcolor="#ffffff"
       empopacity="0.1254902" />
  </sodipodi:namedview>
  <metadata
     id="metadata5">
    <rdf:RDF>
      <cc:Work
         rdf:about="">
        <dc:format>image/svg+xml</dc:format>
        <dc:type
           rdf:resource="http://purl.org/dc/dcmitype/StillImage" />
        <dc:title />
      </cc:Work>
    </rdf:RDF>
  </metadata>
  <g
     inkscape:label="Layer 1"
     inkscape:groupmode="layer"
     id="layer1"
     transform="translate(0,394.66668)">
    <rect
       style="opacity:1;fill:#909090;fill-opacity:1;stroke:none;stroke-width:3.9987402;stroke-linecap:round;stroke-linejoin:miter;stroke-miterlimit:4;stroke-dasharray:none;stroke-dashoffset:0;stroke-opacity:1;paint-order:markers stroke fill"
       id="rect4522"
       width="128"
       height="128"
       x="63.975121"
       y="-330.66669" />
    <rect
       style="opacity:1;fill:#909090;fill-opacity:1;stroke:none;stroke-width:3.9987402;stroke-linecap:round;stroke-linejoin:miter;stroke-miterlimit:4;stroke-dasharray:none;stroke-dashoffset:0;stroke-opacity:1;paint-order:markers stroke fill"
       id="rect4524"
       width="128"
       height="128"
       x="319.98062"
       y="-330.66037" />
    <rect
       style="opacity:1;fill:#909090;fill-opacity:1;stroke:none;stroke-width:3.9987402;stroke-linecap:round;stroke-linejoin:miter;stroke-miterlimit:4;stroke-dasharray:none;stroke-dashoffset:0;stroke-opacity:1;paint-order:markers stroke fill"
       id="rect4526"
       width="128"
       height="128"
       x="575.97028"
       y="-330.66669" />
    <rect
       style="opacity:1;fill:#909090;fill-opacity:1;stroke:none;stroke-width:3.9987402;stroke-linecap:round;stroke-linejoin:miter;stroke-miterlimit:4;stroke-dasharray:none;stroke-dashoffset:0;stroke-opacity:1;paint-order:markers stroke fill"
       id="rect4528"
       width="128"
       height="128"
       x="831.9751"
       y="-330.66669" />
    <rect
       style="opacity:1;fill:#909090;fill-opacity:1;stroke:none;stroke-width:3.9987402;stroke-linecap:round;stroke-linejoin:miter;stroke-miterlimit:4;stroke-dasharray:none;stroke-dashoffset:0;stroke-opacity:1;paint-order:markers stroke fill"
       id="rect4532"
       width="128"
       height="128"
       x="1087.9755"
       y="-330.67291" />
    <rect
       style="opacity:1;fill:#909090;fill-opacity:1;stroke:none;stroke-width:3.9987402;stroke-linecap:round;stroke-linejoin:miter;stroke-miterlimit:4;stroke-dasharray:none;stroke-dashoffset:0;stroke-opacity:1;paint-order:markers stroke fill"
       id="rect4534"
       width="128"
       height="128"
       x="1343.9751"
       y="-330.66669" />
    <rect
       y="-74.666672"
       x="63.975121"
       height="128"
       width="128"
       id="rect4536"
       style="opacity:1;fill:#909090;fill-opacity:1;stroke:none;stroke-width:3.9987402;stroke-linecap:round;stroke-linejoin:miter;stroke-miterlimit:4;stroke-dasharray:none;stroke-dashoffset:0;stroke-opacity:1;paint-order:markers stroke fill" />
    <rect
       y="-74.660355"
       x="319.98062"
       height="128"
       width="128"
       id="rect4538"
       style="opacity:1;fill:#909090;fill-opacity:1;stroke:none;stroke-width:3.9987402;stroke-linecap:round;stroke-linejoin:miter;stroke-miterlimit:4;stroke-dasharray:none;stroke-dashoffset:0;stroke-opacity:1;paint-order:markers stroke fill" />
    <rect
       y="-74.666672"
       x="575.97028"
       height="128"
       width="128"
       id="rect4540"
       style="opacity:1;fill:#909090;fill-opacity:1;stroke:none;stroke-width:3.9987402;stroke-linecap:round;stroke-linejoin:miter;stroke-miterlimit:4;stroke-dasharray:none;stroke-dashoffset:0;stroke-opacity:1;paint-order:markers stroke fill" />
    <rect
       y="-74.666672"
       x="831.9751"
       height="128"
       width="128"
       id="rect4542"
       style="opacity:1;fill:#909090;fill-opacity:1;stroke:none;stroke-width:3.9987402;stroke-linecap:round;stroke-linejoin:miter;stroke-miterlimit:4;stroke-dasharray:none;stroke-dashoffset:0;stroke-opacity:1;paint-order:markers stroke fill" />
    <rect
       y="-74.672913"
       x="1087.9755"
       height="128"
       width="128"
       id="rect4544"
       style="opacity:1;fill:#909090;fill-opacity:1;stroke:none;stroke-width:3.9987402;stroke-linecap:round;stroke-linejoin:miter;stroke-miterlimit:4;stroke-dasharray:none;stroke-dashoffset:0;stroke-opacity:1;paint-order:markers stroke fill" />
    <rect
       y="-74.666672"
       x="1343.9751"
       height="128"
       width="128"
       id="rect4546"
       style="opacity:1;fill:#909090;fill-opacity:1;stroke:none;stroke-width:3.9987402;stroke-linecap:round;stroke-linejoin:miter;stroke-miterlimit:4;stroke-dasharray:none;stroke-dashoffset:0;stroke-opacity:1;paint-order:markers stroke fill" />
    <rect
       style="opacity:1;fill:#909090;fill-opacity:1;stroke:none;stroke-width:3.9987402;stroke-linecap:round;stroke-linejoin:miter;stroke-miterlimit:4;stroke-dasharray:none;stroke-dashoffset:0;stroke-opacity:1;paint-order:markers stroke fill"
       id="rect4548"
       width="128"
       height="128"
       x="63.975121"
       y="181.33331" />
    <rect
       style="opacity:1;fill:#909090;fill-opacity:1;stroke:none;stroke-width:3.9987402;stroke-linecap:round;stroke-linejoin:miter;stroke-miterlimit:4;stroke-dasharray:none;stroke-dashoffset:0;stroke-opacity:1;paint-order:markers stroke fill"
       id="rect4550"
       width="128"
       height="128"
       x="319.98062"
       y="181.33963" />
    <rect
       style="opacity:1;fill:#909090;fill-opacity:1;stroke:none;stroke-width:3.9987402;stroke-linecap:round;stroke-linejoin:miter;stroke-miterlimit:4;stroke-dasharray:none;stroke-dashoffset:0;stroke-opacity:1;paint-order:markers stroke fill"
       id="rect4552"
       width="128"
       height="128"
       x="575.97028"
       y="181.33331" />
    <rect
       style="opacity:1;fill:#909090;fill-opacity:1;stroke:none;stroke-width:3.9987402;stroke-linecap:round;stroke-linejoin:miter;stroke-miterlimit:4;stroke-dasharray:none;stroke-dashoffset:0;stroke-opacity:1;paint-order:markers stroke fill"
       id="rect4554"
       width="128"
       height="128"
       x="831.9751"
       y="181.33331" />
    <rect
       style="opacity:1;fill:#909090;fill-opacity:1;stroke:none;stroke-width:3.9987402;stroke-linecap:round;stroke-linejoin:miter;stroke-miterlimit:4;stroke-dasharray:none;stroke-dashoffset:0;stroke-opacity:1;paint-order:markers stroke fill"
       id="rect4556"
       width="128"
       height="128"
       x="1087.9755"
       y="181.32709" />
    <rect
       style="opacity:1;fill:#909090;fill-opacity:1;stroke:none;stroke-width:3.9987402;stroke-linecap:round;stroke-linejoin:miter;stroke-miterlimit:4;stroke-dasharray:none;stroke-dashoffset:0;stroke-opacity:1;paint-order:markers stroke fill"
       id="rect4558"
       width="128"
       height="128"
       x="1343.9751"
       y="181.33331" />
    <rect
       y="437.33331"
       x="63.975121"
       height="128"
       width="128"
       id="rect4560"
       style="opacity:1;fill:#909090;fill-opacity:1;stroke:none;stroke-width:3.9987402;stroke-linecap:round;stroke-linejoin:miter;stroke-miterlimit:4;stroke-dasharray:none;stroke-dashoffset:0;stroke-opacity:1;paint-order:markers stroke fill" />
    <rect
       y="437.33966"
       x="319.98062"
       height="128"
       width="128"
       id="rect4562"
       style="opacity:1;fill:#909090;fill-opacity:1;stroke:none;stroke-width:3.9987402;stroke-linecap:round;stroke-linejoin:miter;stroke-miterlimit:4;stroke-dasharray:none;stroke-dashoffset:0;stroke-opacity:1;paint-order:markers stroke fill" />
    <rect
       y="437.33331"
       x="575.97028"
       height="128"
       width="128"
       id="rect4564"
       style="opacity:1;fill:#909090;fill-opacity:1;stroke:none;stroke-width:3.9987402;stroke-linecap:round;stroke-linejoin:miter;stroke-miterlimit:4;stroke-dasharray:none;stroke-dashoffset:0;stroke-opacity:1;paint-order:markers stroke fill" />
    <rect
       y="437.33331"
       x="831.9751"
       height="128"
       width="128"
       id="rect4566"
       style="opacity:1;fill:#909090;fill-opacity:1;stroke:none;stroke-width:3.9987402;stroke-linecap:round;stroke-linejoin:miter;stroke-miterlimit:4;stroke-dasharray:none;stroke-dashoffset:0;stroke-opacity:1;paint-order:markers stroke fill" />
    <rect
       y="437.32709"
       x="1087.9755"
       height="128"
       width="128"
       id="rect4568"
       style="opacity:1;fill:#909090;fill-opacity:1;stroke:none;stroke-width:3.9987402;stroke-linecap:round;stroke-linejoin:miter;stroke-miterlimit:4;stroke-dasharray:none;stroke-dashoffset:0;stroke-opacity:1;paint-order:markers stroke fill" />
    <rect
       y="437.33331"
       x="1343.9751"
       height="128"
       width="128"
       id="rect4570"
       style="opacity:1;fill:#909090;fill-opacity:1;stroke:none;stroke-width:3.9987402;stroke-linecap:round;stroke-linejoin:miter;stroke-miterlimit:4;stroke-dasharray:none;stroke-dashoffset:0;stroke-opacity:1;paint-order:markers stroke fill" />
    <rect
       style="opacity:1;fill:#909090;fill-opacity:1;stroke:none;stroke-width:3.9987402;stroke-linecap:round;stroke-linejoin:miter;stroke-miterlimit:4;stroke-dasharray:none;stroke-dashoffset:0;stroke-opacity:1;paint-order:markers stroke fill"
       id="rect4572"
       width="128"
       height="128"
       x="575.99451"
       y="693.32703" />
    <rect
       y="693.33331"
       x="832"
       height="128"
       width="128"
       id="rect4705"
       style="opacity:1;fill:#909090;fill-opacity:1;stroke:none;stroke-width:3.77952766;stroke-linecap:round;stroke-linejoin:miter;stroke-miterlimit:4;stroke-dasharray:none;stroke-dashoffset:0;stroke-opacity:1;paint-order:markers stroke fill" />
    <path
       style="opacity:1;fill:none;fill-opacity:1;stroke:#000000;stroke-width:32;stroke-linecap:square;stroke-linejoin:miter;stroke-miterlimit:4;stroke-dasharray:none;stroke-dashoffset:0;stroke-opacity:1;paint-order:markers stroke fill"
       d="m 703.97031,-330.66668 h -64 c -22.865,0 -43.99313,12.19833 -55.42563,32 -11.4325,19.80167 -11.4325,44.19833 0,64 11.4325,19.80167 32.56063,32 55.42563,32 h 64"
       id="path4595"
       inkscape:connector-curvature="0"
       sodipodi:nodetypes="cssscc" />
    <path
       id="path4646"
       d="m 75.517795,297.7627 v -52.45733 c 10e-7,-18.7412 9.998312,-36.05878 26.228665,-45.42938 16.23035,-9.3706 36.22697,-9.3706 52.45732,0 16.23036,9.3706 26.22867,26.68818 26.22867,45.42938 v 52.45733"
       style="opacity:1;fill:none;fill-opacity:1;stroke:#000000;stroke-width:52.45732498;stroke-linecap:square;stroke-linejoin:miter;stroke-miterlimit:4;stroke-dasharray:none;stroke-dashoffset:0;stroke-opacity:1;paint-order:markers stroke fill"
       inkscape:connector-curvature="0"
       sodipodi:nodetypes="cssssc" />
    <path
       inkscape:connector-curvature="0"
       style="opacity:1;fill:none;fill-opacity:1;stroke:#000000;stroke-width:32;stroke-linecap:square;stroke-linejoin:miter;stroke-miterlimit:4;stroke-dasharray:none;stroke-dashoffset:0;stroke-opacity:1;paint-order:markers stroke fill"
       d="m 319.98062,309.33965 v -64.00001 c 0,-22.865 12.19833,-43.99312 32,-55.42562 19.80167,-11.4325 44.19833,-11.4325 64,0 19.80167,11.4325 32,32.56062 32,55.42562 v 64.00001"
       id="path4686"
       sodipodi:nodetypes="cssssc" />
    <path
       sodipodi:nodetypes="cssssc"
       id="path4699"
       d="m 703.97031,437.39272 v 64.00001 c 0,22.865 -12.19833,43.99312 -32,55.42562 -19.80167,11.4325 -44.19833,11.4325 -64,0 -19.80167,-11.4325 -32,-32.56062 -32,-55.42562 v -64.00001"
       style="opacity:1;fill:none;fill-opacity:1;stroke:#000000;stroke-width:32;stroke-linecap:square;stroke-linejoin:miter;stroke-miterlimit:4;stroke-dasharray:none;stroke-dashoffset:0;stroke-opacity:1;paint-order:markers stroke fill"
       inkscape:connector-curvature="0" />
    <path
       inkscape:connector-curvature="0"
       style="opacity:1;fill:none;fill-opacity:1;stroke:#000000;stroke-width:53.25730133;stroke-linecap:square;stroke-linejoin:miter;stroke-miterlimit:4;stroke-dasharray:none;stroke-dashoffset:0;stroke-opacity:1;paint-order:markers stroke fill"
       d="m 1098.7182,448.06818 v 53.25731 c 0,19.027 10.1507,36.60868 26.6287,46.12217 16.4779,9.5135 36.7793,9.5135 53.2573,0 16.4779,-9.51349 26.6286,-27.09517 26.6286,-46.12217 v -53.25731"
       id="path4701"
       sodipodi:nodetypes="cssssc" />
    <path
       style="opacity:1;fill:none;fill-opacity:1;stroke:#000000;stroke-width:32;stroke-linecap:square;stroke-linejoin:miter;stroke-miterlimit:4;stroke-dasharray:none;stroke-dashoffset:0;stroke-opacity:1;paint-order:markers stroke fill"
       d="m 383.98279,-330.66036 a 64,64 0 0 1 59.12829,39.50826 64,64 0 0 1 -13.87346,69.74657 64,64 0 0 1 -69.74657,13.87345 64,64 0 0 1 -39.50826,-59.12829 l -0.002,-63.99999 z"
       id="circle1175"
       inkscape:connector-curvature="0" />
    <path
       style="opacity:1;fill:none;fill-opacity:1;stroke:#000000;stroke-width:32;stroke-linecap:square;stroke-linejoin:miter;stroke-miterlimit:4;stroke-dasharray:none;stroke-dashoffset:0;stroke-opacity:1;paint-order:markers stroke fill"
       d="m 64.004812,-330.66668 h 63.999998 c 22.865,0 43.99313,12.19833 55.42563,32 11.4325,19.80167 11.4325,44.19833 0,64 -11.4325,19.80167 -32.56063,32 -55.42563,32 H 64.004812"
       id="path4595-2"
       inkscape:connector-curvature="0"
       sodipodi:nodetypes="cssscc" />
    <path
       inkscape:connector-curvature="0"
       style="opacity:1;fill:none;fill-opacity:1;stroke:#000000;stroke-width:32;stroke-linecap:square;stroke-linejoin:miter;stroke-miterlimit:4;stroke-dasharray:none;stroke-dashoffset:0;stroke-opacity:1;paint-order:markers stroke fill"
       d="m 895.97124,-330.66668 a 64,64 0 0 0 -59.12829,39.50826 64,64 0 0 0 13.87346,69.74657 64,64 0 0 0 69.74657,13.87346 64,64 0 0 0 39.50826,-59.12829 l 0.002,-64 z"
       id="circle1175-5" />
    <path
       style="opacity:1;fill:none;fill-opacity:1;stroke:#000000;stroke-width:32;stroke-linecap:square;stroke-linejoin:miter;stroke-miterlimit:4;stroke-dasharray:none;stroke-dashoffset:0;stroke-opacity:1;paint-order:markers stroke fill"
       d="m 1343.9751,-202.66669 v -64 c 0,-22.865 12.1983,-43.9931 32,-55.4256 19.8017,-11.4325 44.1983,-11.4325 64,0 19.8017,11.4325 32,32.5606 32,55.4256 v 64 l 32,10e-6"
       id="path4595-24"
       inkscape:connector-curvature="0"
       sodipodi:nodetypes="cssscc" />
    <path
       inkscape:connector-curvature="0"
       style="opacity:1;fill:none;fill-opacity:1;stroke:#000000;stroke-width:32;stroke-linecap:square;stroke-linejoin:miter;stroke-miterlimit:4;stroke-dasharray:none;stroke-dashoffset:0;stroke-opacity:1;paint-order:markers stroke fill"
       d="m 191.97478,53.33163 v -64.00201 c 0,-25.88558 -15.5931,-49.2223 -39.50827,-59.12828 -23.91516,-9.90598 -51.4427,-4.43041 -69.74656,13.87346 -18.303867,18.30387 -23.779437,45.8314 -13.87346,69.74656 9.905981,23.91516 33.24271,39.50827 59.12829,39.50827 l 64.00068,10e-4 H 63.975467"
       id="circle1175-6-7"
       sodipodi:nodetypes="cssssccc" />
    <path
       style="opacity:1;fill:none;fill-opacity:1;stroke:#000000;stroke-width:32;stroke-linecap:square;stroke-linejoin:miter;stroke-miterlimit:4;stroke-dasharray:none;stroke-dashoffset:0;stroke-opacity:1;paint-order:markers stroke fill"
       d="m 575.97031,-74.66668 h 63.99999 a 64,64 0 0 1 64,64 l 1e-5,64"
       id="path4688-4"
       inkscape:connector-curvature="0" />
    <path
       style="opacity:1;fill:none;fill-opacity:1;stroke:#000000;stroke-width:32;stroke-linecap:square;stroke-linejoin:miter;stroke-miterlimit:4;stroke-dasharray:none;stroke-dashoffset:0;stroke-opacity:1;paint-order:markers stroke fill"
       d="m 831.91856,-74.66665 v 64 c 0,22.865 12.1983,43.9931 32,55.4256 19.8017,11.4325 44.1983,11.4325 64,0 19.8017,-11.4325 32,-32.5606 32,-55.4256 v -64 l 32,-10e-6"
       id="path4595-24-3"
       inkscape:connector-curvature="0"
       sodipodi:nodetypes="cssscc" />
    <path
       style="opacity:1;fill:none;fill-opacity:1;stroke:#000000;stroke-width:32;stroke-linecap:square;stroke-linejoin:miter;stroke-miterlimit:4;stroke-dasharray:none;stroke-dashoffset:0;stroke-opacity:1;paint-order:markers stroke fill"
       d="m 1215.9755,-74.67292 h -64 c -22.865,0 -43.9931,12.1983 -55.4256,32 -11.4325,19.8017 -11.4325,44.1983 0,64 11.4325,19.8017 32.5606,32 55.4256,32 h 64 v 32"
       id="path4595-24-7"
       inkscape:connector-curvature="0"
       sodipodi:nodetypes="cssscc" />
    <path
       style="opacity:1;fill:none;fill-opacity:1;stroke:#000000;stroke-width:32;stroke-linecap:square;stroke-linejoin:miter;stroke-miterlimit:4;stroke-dasharray:none;stroke-dashoffset:0;stroke-opacity:1;paint-order:markers stroke fill"
       d="m 1471.9751,53.33332 h -64 a 64,64 0 0 1 -64,-64 v -64"
       id="path4688-4-4"
       inkscape:connector-curvature="0" />
    <path
       inkscape:connector-curvature="0"
       style="opacity:1;fill:none;fill-opacity:1;stroke:#000000;stroke-width:32;stroke-linecap:square;stroke-linejoin:miter;stroke-miterlimit:4;stroke-dasharray:none;stroke-dashoffset:0;stroke-opacity:1;paint-order:markers stroke fill"
       d="m 895.97324,309.33333 a 64,64 0 0 0 59.12829,-39.50826 64,64 0 0 0 -13.87346,-69.74657 64,64 0 0 0 -69.74657,-13.87346 64,64 0 0 0 -39.50826,59.12829 l -0.002,64 z"
       id="circle1175-5-3" />
    <path
       inkscape:connector-curvature="0"
       style="opacity:1;fill:none;fill-opacity:1;stroke:#000000;stroke-width:32;stroke-linecap:square;stroke-linejoin:miter;stroke-miterlimit:4;stroke-dasharray:none;stroke-dashoffset:0;stroke-opacity:1;paint-order:markers stroke fill"
       d="m 1215.9726,245.32609 a 64,64 0 0 0 -39.5083,-59.12829 64,64 0 0 0 -69.7465,13.87346 64,64 0 0 0 -13.8735,69.74657 64,64 0 0 0 59.1283,39.50826 l 64,0.002 z"
       id="circle1175-5-9" />
    <path
       style="opacity:1;fill:none;fill-opacity:1;stroke:#000000;stroke-width:32;stroke-linecap:square;stroke-linejoin:miter;stroke-miterlimit:4;stroke-dasharray:none;stroke-dashoffset:0;stroke-opacity:1;paint-order:markers stroke fill"
       d="m 1471.9185,181.33333 h -64 a 64,64 0 0 0 -64,64 v 64"
       id="path4688-4-44"
       inkscape:connector-curvature="0" />
    <path
       style="opacity:1;fill:none;fill-opacity:1;stroke:#000000;stroke-width:32;stroke-linecap:square;stroke-linejoin:miter;stroke-miterlimit:4;stroke-dasharray:none;stroke-dashoffset:0;stroke-opacity:1;paint-order:markers stroke fill"
       d="m 191.94684,437.30506 c -35.34623,0 -64,28.65378 -64,64 0,35.34622 -28.653769,64 -63.999999,64"
       id="path4688-4-44-9"
       inkscape:connector-curvature="0"
       sodipodi:nodetypes="ccc" />
    <path
       style="opacity:1;fill:none;fill-opacity:1;stroke:#000000;stroke-width:32;stroke-linecap:square;stroke-linejoin:miter;stroke-miterlimit:4;stroke-dasharray:none;stroke-dashoffset:0;stroke-opacity:1;paint-order:markers stroke fill"
       d="m 319.92402,565.33966 h 64 a 64,64 0 0 0 64,-64 v -64"
       id="path4688-4-44-8"
       inkscape:connector-curvature="0" />
    <path
       style="opacity:1;fill:none;fill-opacity:1;stroke:#000000;stroke-width:53.29378128;stroke-linecap:square;stroke-linejoin:miter;stroke-miterlimit:4;stroke-dasharray:none;stroke-dashoffset:0;stroke-opacity:1;paint-order:markers stroke fill"
       d="M 895.9987,554.62817 895.9516,448.03851"
       id="path4688-4-44-8-2"
       inkscape:connector-curvature="0"
       sodipodi:nodetypes="cc" />
    <path
       style="opacity:1;fill:none;fill-opacity:1;stroke:#000000;stroke-width:32;stroke-linecap:square;stroke-linejoin:miter;stroke-miterlimit:4;stroke-dasharray:none;stroke-dashoffset:0;stroke-opacity:1;paint-order:markers stroke fill"
       d="m 1344.0345,437.33334 h 64 c 22.865,0 43.9931,12.1983 55.4256,32 11.4325,19.8017 11.4325,44.1983 0,64 -11.4325,19.8017 -32.5606,32 -55.4256,32 h -64 v 32"
       id="path4595-24-7-1"
       inkscape:connector-curvature="0"
       sodipodi:nodetypes="cssscc" />
    <path
       sodipodi:nodetypes="ccc"
       inkscape:connector-curvature="0"
       id="path1227-8"
       d="m 959.97173,821.30511 c -35.34623,0 -64,-28.6538 -64,-64 0,-35.34621 -28.65377,-63.99999 -64,-63.99999"
       style="opacity:1;fill:none;fill-opacity:1;stroke:#000000;stroke-width:32;stroke-linecap:square;stroke-linejoin:miter;stroke-miterlimit:4;stroke-dasharray:none;stroke-dashoffset:0;stroke-opacity:1;paint-order:markers stroke fill" />
    <path
       inkscape:connector-curvature="0"
       style="opacity:1;fill:none;fill-opacity:1;stroke:#000000;stroke-width:32;stroke-linecap:square;stroke-linejoin:miter;stroke-miterlimit:4;stroke-dasharray:none;stroke-dashoffset:0;stroke-opacity:1;paint-order:markers stroke fill"
       d="m 1087.9755,-202.672 v -64.00201 c 0,-25.88558 15.5931,-49.2223 39.5083,-59.12828 23.9151,-9.90598 51.4426,-4.43041 69.7465,13.87346 18.3039,18.30387 23.7795,45.8314 13.8735,69.74656 -9.906,23.91516 -33.2427,39.50827 -59.1283,39.50827 l -64.0007,0.001 h 128"
       id="circle1175-6-7-6"
       sodipodi:nodetypes="cssssccc" />
    <path
       sodipodi:nodetypes="cssssc"
       id="path1183"
       d="M 447.97512,53.32851 V -10.6715 c 0,-22.865 -12.19833,-43.99312 -32,-55.42562 -19.80167,-11.4325 -44.19833,-11.4325 -64,0 -19.80167,11.4325 -32,32.56062 -32,55.42562 v 64.00001"
       style="opacity:1;fill:none;fill-opacity:1;stroke:#000000;stroke-width:32;stroke-linecap:square;stroke-linejoin:miter;stroke-miterlimit:4;stroke-dasharray:none;stroke-dashoffset:0;stroke-opacity:1;paint-order:markers stroke fill"
       inkscape:connector-curvature="0" />
    <path
       inkscape:connector-curvature="0"
       style="opacity:1;fill:none;fill-opacity:1;stroke:#000000;stroke-width:32;stroke-linecap:square;stroke-linejoin:miter;stroke-miterlimit:4;stroke-dasharray:none;stroke-dashoffset:0;stroke-opacity:1;paint-order:markers stroke fill"
       d="m 288,21.33332 v 32"
       id="path931"
       sodipodi:nodetypes="cc" />
    <path
       inkscape:connector-curvature="0"
       style="opacity:1;fill:none;fill-opacity:1;stroke:#000000;stroke-width:32;stroke-linecap:square;stroke-linejoin:miter;stroke-miterlimit:4;stroke-dasharray:none;stroke-dashoffset:0;stroke-opacity:1;paint-order:markers stroke fill"
       d="m 735.99661,693.30512 v 32.00001"
       id="path931-9"
       sodipodi:nodetypes="cc" />
    <path
       sodipodi:nodetypes="cssssc"
       id="path1183-1"
       d="m 575.99451,693.29739 v 64.00001 c 0,22.865 12.19833,43.99312 32,55.42562 19.80167,11.4325 44.19833,11.4325 64,0 19.80167,-11.4325 32,-32.56062 32,-55.42562 v -64.00001"
       style="opacity:1;fill:none;fill-opacity:1;stroke:#000000;stroke-width:32;stroke-linecap:square;stroke-linejoin:miter;stroke-miterlimit:4;stroke-dasharray:none;stroke-dashoffset:0;stroke-opacity:1;paint-order:markers stroke fill"
       inkscape:connector-curvature="0" />
    <path
       sodipodi:nodetypes="cc"
       inkscape:connector-curvature="0"
       id="path877"
       d="m 693.29483,245.30977 -106.58966,0.0471"
       style="opacity:1;fill:none;fill-opacity:1;stroke:#000000;stroke-width:53.29378128;stroke-linecap:square;stroke-linejoin:miter;stroke-miterlimit:4;stroke-dasharray:none;stroke-dashoffset:0;stroke-opacity:1;paint-order:markers stroke fill" />
  </g>
</svg>
