<?xml version="1.0" encoding="UTF-8" standalone="no"?>
<!-- Created with Inkscape (http://www.inkscape.org/) -->

<svg
   xmlns:dc="http://purl.org/dc/elements/1.1/"
   xmlns:cc="http://creativecommons.org/ns#"
   xmlns:rdf="http://www.w3.org/1999/02/22-rdf-syntax-ns#"
   xmlns:svg="http://www.w3.org/2000/svg"
   xmlns="http://www.w3.org/2000/svg"
   xmlns:sodipodi="http://sodipodi.sourceforge.net/DTD/sodipodi-0.dtd"
   xmlns:inkscape="http://www.inkscape.org/namespaces/inkscape"
   width="210mm"
   height="297mm"
   viewBox="0 0 210 297"
   version="1.1"
   id="svg8"
   inkscape:version="0.92.4 (5da689c313, 2019-01-14)"
   sodipodi:docname="flyer.svg">
  <defs
     id="defs2" />
  <sodipodi:namedview
     id="base"
     pagecolor="#ffffff"
     bordercolor="#666666"
     borderopacity="1.0"
     inkscape:pageopacity="0.0"
     inkscape:pageshadow="2"
     inkscape:zoom="1.4"
     inkscape:cx="370.95621"
     inkscape:cy="570.89945"
     inkscape:document-units="mm"
     inkscape:current-layer="layer1"
     showgrid="false"
     inkscape:window-width="1920"
     inkscape:window-height="1027"
     inkscape:window-x="-8"
     inkscape:window-y="22"
     inkscape:window-maximized="1">
    <inkscape:grid
       type="xygrid"
       id="grid849" />
  </sodipodi:namedview>
  <metadata
     id="metadata5">
    <rdf:RDF>
      <cc:Work
         rdf:about="">
        <dc:format>image/svg+xml</dc:format>
        <dc:type
           rdf:resource="http://purl.org/dc/dcmitype/StillImage" />
        <dc:title />
      </cc:Work>
    </rdf:RDF>
  </metadata>
  <g
     inkscape:label="Layer 1"
     inkscape:groupmode="layer"
     id="layer1">
    <path
       sodipodi:nodetypes="cccccccccccccccccccccc"
       style="fill:#cbdbea;fill-opacity:1;stroke:none;stroke-width:0.26458332px;stroke-linecap:butt;stroke-linejoin:miter;stroke-opacity:1"
       d="m 183.44457,112.92541 v 21.16666 h 8.31548 l -26.83632,10.58333 2.64583,7.9375 18.52084,-4.23333 v 14.81667 l -13.22917,13.22916 10.58334,10.58334 13.22917,-13.22917 13.22918,13.22917 10.58332,-10.58334 -13.22916,-13.22916 v -14.81667 l 22.86755,-5.02709 -1.7009,-9.26041 -20.78868,3.2128 -6.04761,-3.2128 h 8.31548 v -21.16666 h -13.22918 z"
       id="path834"
       inkscape:connector-curvature="0" />
    <path
       style="opacity:1;fill:#edd6d2;fill-opacity:1;stroke:none;stroke-width:0.52916664;stroke-linecap:round;stroke-linejoin:round;stroke-miterlimit:4;stroke-dasharray:none;stroke-dashoffset:0;stroke-opacity:1;paint-order:markers fill stroke"
       d="m 183.31858,112.92541 v 21.16666 h 8.18968 l -1.5751,3.175 h -25.13543 l -0.18913,10.05417 21.35581,1.05833 v 14.81667 l -13.22917,13.22917 10.58334,10.58333 13.22917,-13.22917 13.22917,13.22917 10.58333,-10.58333 -13.22917,-13.22917 v -14.81667 l 21.35581,-1.05833 -0.18914,-10.05417 h -25.13542 l -1.57509,-3.175 h 8.18968 v -21.16666 h -13.22917 z"
       id="rect898"
       inkscape:connector-curvature="0" />
    <text
       xml:space="preserve"
       style="font-style:normal;font-variant:normal;font-weight:normal;font-stretch:normal;font-size:6.26548672px;line-height:1.25;font-family:'Open Sans';-inkscape-font-specification:'Open Sans';text-align:center;letter-spacing:0px;word-spacing:0px;text-anchor:middle;fill:#000000;fill-opacity:1;stroke:none;stroke-width:0.09789823"
       x="83.552498"
       y="32.150841"
       id="text817"><tspan
         sodipodi:role="line"
         id="tspan815"
         x="83.552498"
         y="32.150841"
         style="stroke-width:0.09789823">bazinga</tspan></text>
    <text
       id="text821"
       y="31.871119"
       x="115.2995"
       style="font-style:normal;font-variant:normal;font-weight:normal;font-stretch:normal;font-size:6.26548672px;line-height:1.25;font-family:'Open Sans';-inkscape-font-specification:'Open Sans';text-align:center;letter-spacing:0px;word-spacing:0px;text-anchor:middle;fill:#000000;fill-opacity:1;stroke:none;stroke-width:0.09789823"
       xml:space="preserve"><tspan
         style="stroke-width:0.09789823"
         y="31.871119"
         x="115.2995"
         sodipodi:role="line"
         id="tspan823">scale</tspan></text>
    <text
       xml:space="preserve"
       style="font-style:normal;font-variant:normal;font-weight:normal;font-stretch:normal;font-size:6.26548672px;line-height:1.25;font-family:'Open Sans';-inkscape-font-specification:'Open Sans';text-align:center;letter-spacing:0px;word-spacing:0px;text-anchor:middle;fill:#000000;fill-opacity:1;stroke:none;stroke-width:0.09789823"
       x="100.61476"
       y="39.772911"
       id="text829"><tspan
         id="tspan827"
         sodipodi:role="line"
         x="100.61476"
         y="39.772911"
         style="stroke-width:0.09789823">Make course work</tspan><tspan
         sodipodi:role="line"
         x="100.61476"
         y="47.604774"
         style="stroke-width:0.09789823"
         id="tspan831">for autonomy</tspan></text>
    <text
       id="text837"
       y="71.030418"
       x="101.45389"
       style="font-style:normal;font-variant:normal;font-weight:normal;font-stretch:normal;font-size:6.26548672px;line-height:1.25;font-family:'Open Sans';-inkscape-font-specification:'Open Sans';text-align:center;letter-spacing:0px;word-spacing:0px;text-anchor:middle;fill:#000000;fill-opacity:1;stroke:none;stroke-width:0.09789823"
       xml:space="preserve"><tspan
         id="tspan835"
         style="stroke-width:0.09789823"
         y="71.030418"
         x="101.45389"
         sodipodi:role="line">charge for one on one</tspan></text>
    <text
       xml:space="preserve"
       style="font-style:normal;font-variant:normal;font-weight:normal;font-stretch:normal;font-size:6.26548672px;line-height:1.25;font-family:'Open Sans';-inkscape-font-specification:'Open Sans';text-align:center;letter-spacing:0px;word-spacing:0px;text-anchor:middle;fill:#000000;fill-opacity:1;stroke:none;stroke-width:0.09789823"
       x="101.45389"
       y="59.282616"
       id="text843"><tspan
         sodipodi:role="line"
         x="101.45389"
         y="59.282616"
         style="stroke-width:0.09789823"
         id="tspan841">charge for coursework?</tspan></text>
    <text
       xml:space="preserve"
       style="font-style:normal;font-variant:normal;font-weight:normal;font-stretch:normal;font-size:6.26548672px;line-height:1.25;font-family:'Open Sans';-inkscape-font-specification:'Open Sans';text-align:center;letter-spacing:0px;word-spacing:0px;text-anchor:middle;fill:#000000;fill-opacity:1;stroke:none;stroke-width:0.09789823"
       x="100.69794"
       y="81.092598"
       id="text847"><tspan
         sodipodi:role="line"
         x="100.69794"
         y="81.092598"
         style="stroke-width:0.09789823"
         id="tspan845">money will come, deliver value to actual people first</tspan></text>
    <path
       inkscape:connector-curvature="0"
       id="path864"
       d="m -12.347154,112.92541 v 21.16666 h 8.3154799 l -26.8363119,10.58333 2.645833,7.9375 18.5208323,-4.23333 v 14.81667 L -22.930486,176.4254 -12.347154,187.00874 0.88201263,173.77957 14.111181,187.00874 24.694495,176.4254 11.465341,163.19624 v -14.81667 l 22.867538,-5.02709 -1.7009,-9.26041 -20.788668,3.2128 -6.0476067,-3.2128 H 14.111181 V 112.92541 H 0.88201263 Z"
       style="fill:#d2968e;fill-opacity:1;stroke:none;stroke-width:0.26458332px;stroke-linecap:butt;stroke-linejoin:miter;stroke-opacity:1"
       sodipodi:nodetypes="cccccccccccccccccccccc" />
    <path
       style="fill:#d2968e;fill-opacity:1;stroke:none;stroke-width:0.26458332px;stroke-linecap:butt;stroke-linejoin:miter;stroke-opacity:1"
       d="m 183.44466,112.92541 v 21.16666 h 8.0636 0.25167 l -0.31265,0.12351 -1.51412,3.05149 h -6.22391 l -18.78543,7.40834 0.90227,2.70629 20.13832,0.99787 v 0.0289 l 0.12609,-0.0289 v 14.81667 l -13.22917,13.22917 10.52029,10.52028 13.16613,-13.16612 0.0631,0.0631 0.063,-0.0631 13.16612,13.16612 10.52029,-10.52028 -13.22917,-13.22917 v -14.81667 l 0.16279,-0.008 21.12532,-4.64416 -0.12144,-6.46007 h -20.41891 l -0.24391,0.0377 -0.0708,-0.0377 h -4.4018 l -1.57509,-3.175 h 8.18968 v -21.16666 h -13.10308 -0.12609 z"
       id="path871"
       inkscape:connector-curvature="0" />
    <path
       sodipodi:nodetypes="cccccccccccccccccccccc"
       style="fill:#d2968e;fill-opacity:1;stroke:none;stroke-width:0.26458332px;stroke-linecap:butt;stroke-linejoin:miter;stroke-opacity:1"
       d="m 82.90285,112.92541 v 21.16666 h 8.315481 l -26.836313,10.58333 2.645833,7.9375 18.520833,-4.23333 v 14.81667 l -13.229166,13.22916 10.583332,10.58334 13.229168,-13.22917 13.229172,13.22917 10.58332,-10.58334 -13.22916,-13.22916 v -14.81667 l 22.86755,-5.02709 -1.7009,-9.26041 -20.78868,3.2128 -6.04761,-3.2128 h 8.31548 V 112.92541 H 96.132018 Z"
       id="path876"
       inkscape:connector-curvature="0" />
    <path
       style="opacity:1;fill:none;fill-opacity:1;stroke:#000000;stroke-width:0.52916667;stroke-linecap:round;stroke-linejoin:round;stroke-miterlimit:4;stroke-dasharray:none;stroke-dashoffset:0;stroke-opacity:1;paint-order:markers fill stroke"
       d="m 40.632666,102.90896 v 96.95119 H 152.32455 v -96.95119 z m 42.144196,10.01645 h 13.229161 13.229167 v 21.16666 h -8.18949 l 1.5749,3.175 h 25.13542 l 0.18899,10.05417 -21.35566,1.05833 v 14.81667 l 13.22917,13.22917 -10.58333,10.58333 -13.229167,-13.22917 -13.229161,13.22917 -10.583334,-10.58333 13.229161,-13.22917 v -14.81667 l -21.355658,-1.05833 0.18899,-10.05417 h 25.135418 l 1.574897,-3.175 h -8.189474 z"
       id="rect862"
       inkscape:connector-curvature="0"
       sodipodi:nodetypes="cccccccccccccccccccccccccccc" />
  </g>
</svg>
