<?xml version="1.0" encoding="UTF-8" standalone="no"?>
<svg
   xmlns:dc="http://purl.org/dc/elements/1.1/"
   xmlns:cc="http://creativecommons.org/ns#"
   xmlns:rdf="http://www.w3.org/1999/02/22-rdf-syntax-ns#"
   xmlns:svg="http://www.w3.org/2000/svg"
   xmlns="http://www.w3.org/2000/svg"
   xmlns:sodipodi="http://sodipodi.sourceforge.net/DTD/sodipodi-0.dtd"
   xmlns:inkscape="http://www.inkscape.org/namespaces/inkscape"
   height="235.452"
   width="261.728"
   viewBox="0 0 245.371 220.736"
   version="1.1"
   id="svg4"
   sodipodi:docname="github-icon.svg"
   inkscape:version="0.92.4 (5da689c313, 2019-01-14)">
  <metadata
     id="metadata10">
    <rdf:RDF>
      <cc:Work
         rdf:about="">
        <dc:format>image/svg+xml</dc:format>
        <dc:type
           rdf:resource="http://purl.org/dc/dcmitype/StillImage" />
        <dc:title />
      </cc:Work>
    </rdf:RDF>
  </metadata>
  <defs
     id="defs8">
    <clipPath
       id="clip1">
      <path
         id="path1489"
         d="M 0 276 L 530.972656 276 L 530.972656 551.984375 L 0 551.984375 Z M 0 276 " />
    </clipPath>
  </defs>
  <sodipodi:namedview
     pagecolor="#808080"
     bordercolor="#666666"
     borderopacity="1"
     objecttolerance="10"
     gridtolerance="10"
     guidetolerance="10"
     inkscape:pageopacity="0"
     inkscape:pageshadow="2"
     inkscape:window-width="1920"
     inkscape:window-height="1027"
     id="namedview6"
     showgrid="false"
     inkscape:zoom="2.0046549"
     inkscape:cx="51.586166"
     inkscape:cy="146.09878"
     inkscape:window-x="-8"
     inkscape:window-y="22"
     inkscape:window-maximized="1"
     inkscape:current-layer="surface1412537" />
  <g
     id="surface1412537"
     transform="matrix(1.2500052,0,0,1.2500052,318.19291,-345.68437)">
    <path
       id="path1588"
       d="m -156.47769,284.33563 c -45.55718,0 -82.48958,36.93235 -82.48958,82.48957 0,36.43782 23.63912,67.35659 56.41737,78.27607 4.1146,0.75173 5.63777,-1.80013 5.63777,-3.97612 0,-1.95841 -0.079,-7.14116 -0.11851,-14.02521 -22.94674,4.985 -27.79324,-11.05794 -27.79324,-11.05794 -3.73873,-9.53475 -9.15888,-12.06681 -9.15888,-12.06681 -7.49728,-5.12346 0.57365,-5.02455 0.57365,-5.02455 8.26873,0.59345 12.62067,8.50613 12.62067,8.50613 7.3588,12.60092 19.32672,8.96109 24.01497,6.84445 0.75172,-5.32127 2.88811,-8.9611 5.24215,-11.01839 -18.31783,-2.07709 -37.58519,-9.15894 -37.58519,-40.77003 0,-9.00068 3.22441,-16.35944 8.50613,-22.13572 -0.85062,-2.09683 -3.67939,-10.46448 0.79127,-21.83897 0,0 6.94335,-2.21555 22.68957,8.46659 6.5873,-1.83969 13.64935,-2.74966 20.65205,-2.76946 7.00275,0.0203 14.0648,0.92977 20.65209,2.76946 15.74618,-10.68214 22.66979,-8.46659 22.66979,-8.46659 4.49044,11.37449 1.66168,19.74214 0.81105,21.83897 5.30148,5.77628 8.48635,13.13504 8.48635,22.13572 0,31.69024 -19.28712,38.65338 -37.6643,40.71068 2.96726,2.53206 5.59822,7.57636 5.59822,15.27142 0,11.01839 -0.0988,19.92018 -0.0988,22.63025 0,2.19579 1.48364,4.76739 5.67733,3.97612 32.738654,-10.93928 56.358009,-41.83825 56.358009,-78.27607 0,-45.55722 -36.932389,-82.48957 -82.489609,-82.48957"
       style="fill:#202020;fill-opacity:1;fill-rule:evenodd;stroke:none;stroke-width:5.06410789"
       inkscape:connector-curvature="0" />
  </g>
</svg>
