<?xml version="1.0" encoding="UTF-8" standalone="no"?>
<svg
   xmlns:dc="http://purl.org/dc/elements/1.1/"
   xmlns:cc="http://creativecommons.org/ns#"
   xmlns:rdf="http://www.w3.org/1999/02/22-rdf-syntax-ns#"
   xmlns:svg="http://www.w3.org/2000/svg"
   xmlns="http://www.w3.org/2000/svg"
   xmlns:sodipodi="http://sodipodi.sourceforge.net/DTD/sodipodi-0.dtd"
   xmlns:inkscape="http://www.inkscape.org/namespaces/inkscape"
   height="235.452"
   width="261.728"
   viewBox="0 0 245.371 220.736"
   version="1.1"
   id="svg4"
   sodipodi:docname="linkedin-icon.svg"
   inkscape:version="0.92.4 (5da689c313, 2019-01-14)">
  <metadata
     id="metadata10">
    <rdf:RDF>
      <cc:Work
         rdf:about="">
        <dc:format>image/svg+xml</dc:format>
        <dc:type
           rdf:resource="http://purl.org/dc/dcmitype/StillImage" />
        <dc:title></dc:title>
      </cc:Work>
    </rdf:RDF>
  </metadata>
  <defs
     id="defs8" />
  <sodipodi:namedview
     pagecolor="#808080"
     bordercolor="#666666"
     borderopacity="1"
     objecttolerance="10"
     gridtolerance="10"
     guidetolerance="10"
     inkscape:pageopacity="0"
     inkscape:pageshadow="2"
     inkscape:window-width="1920"
     inkscape:window-height="1027"
     id="namedview6"
     showgrid="false"
     inkscape:zoom="2.0046549"
     inkscape:cx="62.333226"
     inkscape:cy="121.63678"
     inkscape:window-x="-8"
     inkscape:window-y="22"
     inkscape:window-maximized="1"
     inkscape:current-layer="svg4" />
  <path
     style="fill:#2766b1;stroke-width:0.4020963"
     d="m 27.45256,216.86364 c -4.63654,-0.90888 -8.917829,-4.32363 -11.042967,-8.80785 l -1.239188,-2.61476 V 109.54105 13.641068 L 16.409593,11.0263 c 2.196657,-4.6351057 6.403344,-7.9022856 11.381209,-8.8393471 2.991423,-0.5631242 186.487188,-0.5631242 189.478608,0 4.97787,0.9370615 9.18455,4.2042414 11.38121,8.8393471 l 1.23919,2.614768 v 95.899982 95.89998 l -1.23919,2.61476 c -2.19666,4.63512 -6.40334,7.90229 -11.38121,8.83936 -2.71419,0.51094 -187.205862,0.4803 -189.81685,-0.0315 z m 51.206048,-32.36451 c 0.134232,-0.34982 0.244058,-23.20296 0.244058,-50.78477 0,-38.468445 -0.112319,-50.261117 -0.482514,-50.631245 -0.692461,-0.692474 -30.510205,-0.692474 -31.202666,0 -0.370168,0.370168 -0.482513,12.244573 -0.482513,50.999215 0,27.78418 0.120628,50.63734 0.268063,50.78476 0.147435,0.14745 7.27534,0.26808 15.839782,0.26808 13.828437,0 15.599047,-0.0712 15.81579,-0.63604 z m 52.126052,-29.5212 c 0.20669,-29.11933 0.23684,-30.04215 1.07945,-33.03385 2.47473,-8.78664 6.7433,-12.64833 15.04359,-13.60969 10.23728,-1.18568 16.31034,3.145 18.68022,13.32078 0.61105,2.62373 0.71015,6.44312 0.86212,33.22688 l 0.17169,30.26239 15.75124,-0.10521 15.75123,-0.10522 -0.003,-33.57505 c -0.003,-36.62996 -0.061,-37.75828 -2.42235,-46.64317 -3.78138,-14.228236 -13.05092,-22.19408 -28.10852,-24.155243 -5.45387,-0.71034 -14.61384,-0.294239 -18.12052,0.823141 -7.41129,2.361569 -13.40259,6.63038 -18.03503,12.850021 l -1.66769,2.239104 -0.11111,-6.405086 c -0.0674,-3.888738 -0.28427,-6.613734 -0.55186,-6.93616 -0.61139,-0.736678 -29.282488,-0.783066 -30.016998,-0.04852 -0.37013,0.370128 -0.48251,12.1628 -0.48251,50.631253 0,27.5818 0.11057,50.43703 0.24584,50.78939 0.22009,0.57355 1.894158,0.62964 15.983328,0.53551 l 15.73749,-0.10522 z M 66.794832,68.100786 C 71.772375,66.953275 77.301873,62.536359 79.431139,58.007012 84.655836,46.89309 77.761575,33.930603 65.50959,31.831924 c -3.343055,-0.572636 -7.337893,0.02158 -10.666982,1.586545 -2.798565,1.315613 -7.197454,5.610252 -8.472,8.271207 -2.670833,5.576061 -2.665217,11.63485 0.01568,16.889812 1.183525,2.319917 5.178858,6.387038 7.532935,7.668286 3.782169,2.05851 8.831875,2.785256 12.87562,1.853012 z"
     id="path842"
     inkscape:connector-curvature="0" />
</svg>
