<?xml version="1.0" encoding="UTF-8" standalone="no"?>
<svg
   xmlns:dc="http://purl.org/dc/elements/1.1/"
   xmlns:cc="http://creativecommons.org/ns#"
   xmlns:rdf="http://www.w3.org/1999/02/22-rdf-syntax-ns#"
   xmlns:svg="http://www.w3.org/2000/svg"
   xmlns="http://www.w3.org/2000/svg"
   xmlns:sodipodi="http://sodipodi.sourceforge.net/DTD/sodipodi-0.dtd"
   xmlns:inkscape="http://www.inkscape.org/namespaces/inkscape"
   height="235.452"
   width="261.728"
   viewBox="0 0 245.371 220.736"
   version="1.1"
   id="svg4"
   sodipodi:docname="twitter-icon.svg"
   inkscape:version="0.92.4 (5da689c313, 2019-01-14)">
  <metadata
     id="metadata10">
    <rdf:RDF>
      <cc:Work
         rdf:about="">
        <dc:format>image/svg+xml</dc:format>
        <dc:type
           rdf:resource="http://purl.org/dc/dcmitype/StillImage" />
        <dc:title />
      </cc:Work>
    </rdf:RDF>
  </metadata>
  <defs
     id="defs8" />
  <sodipodi:namedview
     pagecolor="#808080"
     bordercolor="#666666"
     borderopacity="1"
     objecttolerance="10"
     gridtolerance="10"
     guidetolerance="10"
     inkscape:pageopacity="0"
     inkscape:pageshadow="2"
     inkscape:window-width="1920"
     inkscape:window-height="1027"
     id="namedview6"
     showgrid="false"
     inkscape:zoom="2.0046549"
     inkscape:cx="169.58361"
     inkscape:cy="116.64839"
     inkscape:window-x="-8"
     inkscape:window-y="22"
     inkscape:window-maximized="1"
     inkscape:current-layer="svg4" />
  <path
     style="fill:#1c9aef;stroke-width:0.2138221"
     d="m 74.157137,199.67898 c -5.100598,-0.4094 -6.943894,-0.60067 -10.156551,-1.05384 -13.650168,-1.92546 -26.580487,-5.94337 -38.913127,-12.09165 -5.542017,-2.76292 -11.700631,-6.32405 -11.412573,-6.59914 0.101431,-0.0968 0.95418,-0.0945 1.894997,0.005 5.546472,0.5883 13.355121,0.45213 19.564721,-0.3412 13.092818,-1.67274 26.247691,-6.44087 37.289918,-13.51615 2.378619,-1.5241 6.543614,-4.54331 6.543614,-4.74347 0,-0.18365 -0.830681,-0.31244 -3.528065,-0.54703 -3.974722,-0.34566 -9.293212,-1.79965 -13.577705,-3.7119 -9.602269,-4.28578 -17.743271,-12.30503 -22.224455,-21.89215 -1.207373,-2.58307 -2.087921,-4.9951 -1.894241,-5.18878 0.07584,-0.0758 0.794739,-0.0281 1.597555,0.10604 0.802817,0.13418 3.101685,0.3006 5.108601,0.36982 4.48114,0.15458 7.925301,-0.16456 12.013534,-1.11319 0.876865,-0.20347 0.501888,-0.46095 -1.389846,-0.95429 -5.715298,-1.49021 -11.708064,-4.53965 -16.517756,-8.4048 -8.865616,-7.12457 -14.716792,-17.34977 -16.341695,-28.557913 -0.427253,-2.94705 -0.632231,-6.585309 -0.379803,-6.741311 0.114555,-0.07076 1.233511,0.351215 2.486567,0.937812 4.309187,2.017293 8.821725,3.341327 13.44405,3.944653 2.915304,0.38052 3.570569,0.404982 3.570569,0.133289 0,-0.107846 -0.841925,-0.848505 -1.870945,-1.645912 C 36.869225,86.061807 33.180697,82.314136 31.229118,79.705503 22.126314,67.537974 19.691059,51.903858 24.671307,37.60492 25.67389,34.726374 27.87017,30.256084 28.2744,30.271216 c 0.186248,0.0071 1.012171,0.845499 1.835386,1.863387 2.202022,2.722765 11.757037,12.234067 14.967545,14.899077 20.921429,17.366681 45.529214,27.462948 72.233099,29.636348 1.82373,0.148435 3.24172,0.177907 3.34093,0.06942 0.0948,-0.103646 -0.0241,-1.246863 -0.26431,-2.540488 -0.59641,-3.212424 -0.64315,-11.32188 -0.0838,-14.539903 1.72011,-9.895832 6.19212,-18.434782 13.21826,-25.239229 12.05001,-11.669794 29.46177,-15.682726 45.40845,-10.4654 1.29362,0.423239 3.72946,1.435515 5.41297,2.249505 4.69373,2.269441 7.81275,4.414417 11.40795,7.845293 1.01935,0.972765 1.98808,1.768665 2.15274,1.768665 0.52443,0 7.67234,-1.855505 9.89232,-2.567922 4.0536,-1.300853 8.77987,-3.279191 13.4246,-5.619328 2.56184,-1.290725 4.70822,-2.296453 4.76972,-2.234954 0.16761,0.167602 -1.21481,3.628847 -2.36027,5.909607 -3.43659,6.842664 -8.30527,12.468728 -14.71149,17.000042 -2.2728,1.607621 -2.22177,1.617435 3.26079,0.627471 5.6555,-1.021195 11.61288,-2.734829 16.95824,-4.878038 1.38891,-0.556869 2.58421,-0.953564 2.65622,-0.881549 0.30086,0.300854 -4.09698,6.109257 -7.59274,10.028023 -3.43901,3.855167 -7.70454,7.80277 -12.23027,11.318697 l -2.00002,1.553782 -0.0548,6.200836 c -0.0759,8.584718 -0.74377,15.45009 -2.25671,23.199713 -7.15174,36.632529 -28.91613,68.429399 -59.37781,86.748519 -16.6766,10.02902 -35.53229,15.84009 -56.376967,17.3746 -2.675146,0.19694 -15.571532,0.25622 -17.747234,0.0816 z"
     id="path829"
     inkscape:connector-curvature="0" />
</svg>
