<?xml version="1.0" encoding="UTF-8" standalone="no"?>
<svg
   xmlns:dc="http://purl.org/dc/elements/1.1/"
   xmlns:cc="http://creativecommons.org/ns#"
   xmlns:rdf="http://www.w3.org/1999/02/22-rdf-syntax-ns#"
   xmlns:svg="http://www.w3.org/2000/svg"
   xmlns="http://www.w3.org/2000/svg"
   xmlns:sodipodi="http://sodipodi.sourceforge.net/DTD/sodipodi-0.dtd"
   xmlns:inkscape="http://www.inkscape.org/namespaces/inkscape"
   height="235.452"
   width="261.728"
   viewBox="0 0 245.371 220.736"
   version="1.1"
   id="svg4"
   sodipodi:docname="twitter-icon.svg"
   inkscape:version="0.92.4 (5da689c313, 2019-01-14)">
  <metadata
     id="metadata10">
    <rdf:RDF>
      <cc:Work
         rdf:about="">
        <dc:format>image/svg+xml</dc:format>
        <dc:type
           rdf:resource="http://purl.org/dc/dcmitype/StillImage" />
        <dc:title></dc:title>
      </cc:Work>
    </rdf:RDF>
  </metadata>
  <defs
     id="defs8" />
  <sodipodi:namedview
     pagecolor="#808080"
     bordercolor="#666666"
     borderopacity="1"
     objecttolerance="10"
     gridtolerance="10"
     guidetolerance="10"
     inkscape:pageopacity="0"
     inkscape:pageshadow="2"
     inkscape:window-width="1920"
     inkscape:window-height="1027"
     id="namedview6"
     showgrid="false"
     inkscape:zoom="2.0046549"
     inkscape:cx="62.333226"
     inkscape:cy="121.63678"
     inkscape:window-x="-8"
     inkscape:window-y="22"
     inkscape:window-maximized="1"
     inkscape:current-layer="svg4" />
  <path
     style="fill:#1c9aef;stroke-width:0.23857568"
     d="m 68.53321,209.97472 c -5.69108,-0.4568 -7.747769,-0.67021 -11.332346,-1.17584 -15.23041,-2.14837 -29.657635,-6.63142 -43.41799,-13.49147 -6.1836008,-3.08277 -13.05518045,-7.05616 -12.733774,-7.3631 0.1131725,-0.10805 1.0646427,-0.10546 2.1143752,0.006 6.1885711,0.65641 14.9012058,0.50447 21.8296738,-0.3807 14.608536,-1.86639 29.286312,-7.18651 41.606866,-15.08087 2.653985,-1.70054 7.30115,-5.06928 7.30115,-5.29261 0,-0.20491 -0.926847,-0.34861 -3.936499,-0.61036 -4.434865,-0.38568 -10.369061,-2.00799 -15.149558,-4.14162 -10.713896,-4.78193 -19.797359,-13.72955 -24.797317,-24.42654 -1.347148,-2.8821 -2.329634,-5.57337 -2.113532,-5.78947 0.08462,-0.0846 0.886743,-0.0314 1.782499,0.11832 0.895757,0.14971 3.460759,0.3354 5.70001,0.41263 4.999908,0.17247 8.84279,-0.18361 13.404306,-1.24206 0.978378,-0.22703 0.559991,-0.51431 -1.550744,-1.06477 -6.376942,-1.66273 -13.063474,-5.06519 -18.42997,-9.3778 -9.891964,-7.94936 -16.420514,-19.3583 -18.233527,-31.863979 -0.476715,-3.288222 -0.7054225,-7.347672 -0.423772,-7.521734 0.127817,-0.07895 1.376311,0.391874 2.77443,1.04638 4.80805,2.25083 9.842991,3.728143 15.00043,4.401315 3.2528,0.424571 3.983923,0.451865 3.983923,0.148719 0,-0.120331 -0.939392,-0.946734 -2.087538,-1.836455 C 26.928582,83.204407 22.813043,79.022878 20.635535,76.112251 10.478926,62.536122 7.7617477,45.092088 13.318545,29.137803 c 1.118649,-3.211788 3.569186,-8.19959 4.020213,-8.182707 0.207809,0.0079 1.129347,0.94338 2.047863,2.079107 2.456944,3.037971 13.118117,13.65037 16.700296,16.623901 23.343444,19.377172 50.800003,30.642255 80.595323,33.067264 2.03486,0.165619 3.617,0.198503 3.7277,0.07746 0.1058,-0.115645 -0.0269,-1.391209 -0.29491,-2.834593 -0.66546,-3.584318 -0.71761,-12.632582 -0.0935,-16.223147 1.91924,-11.041444 6.90896,-20.568924 14.7485,-28.161103 13.445,-13.020773 32.87247,-17.4982715 50.66526,-11.67695 1.44338,0.472236 4.16121,1.601701 6.03961,2.509924 5.23711,2.532168 8.71721,4.925462 12.72862,8.75352 1.13736,1.08538 2.21823,1.973419 2.40195,1.973419 0.58515,0 8.56055,-2.070312 11.03753,-2.865203 4.52287,-1.451449 9.79629,-3.658814 14.97873,-6.269862 2.85842,-1.440149 5.25327,-2.562307 5.32189,-2.493688 0.18702,0.187004 -1.35544,4.048948 -2.63351,6.593745 -3.83443,7.63482 -9.26675,13.912197 -16.41459,18.968089 -2.53592,1.793731 -2.47898,1.804681 3.63828,0.700112 6.31022,-1.139416 12.95727,-3.051433 18.92145,-5.442755 1.5497,-0.621336 2.88337,-1.063956 2.96372,-0.983604 0.33569,0.335683 -4.57128,6.816509 -8.47173,11.188939 -3.83714,4.301469 -8.59647,8.706075 -13.64613,12.629031 l -2.23156,1.733659 -0.0612,6.918689 c -0.0847,9.578547 -0.82988,17.238703 -2.51797,25.885478 -7.97967,40.873372 -32.26366,76.351272 -66.25181,96.791152 -18.6072,11.19005 -39.64576,17.67385 -62.903566,19.386 -2.984839,0.21974 -17.374204,0.28588 -19.801781,0.091 z"
     id="path829"
     inkscape:connector-curvature="0" />
</svg>
