<?xml version="1.0" encoding="UTF-8" standalone="no"?>
<!-- Created with Inkscape (http://www.inkscape.org/) -->

<svg
   xmlns:dc="http://purl.org/dc/elements/1.1/"
   xmlns:cc="http://creativecommons.org/ns#"
   xmlns:rdf="http://www.w3.org/1999/02/22-rdf-syntax-ns#"
   xmlns:svg="http://www.w3.org/2000/svg"
   xmlns="http://www.w3.org/2000/svg"
   xmlns:xlink="http://www.w3.org/1999/xlink"
   xmlns:sodipodi="http://sodipodi.sourceforge.net/DTD/sodipodi-0.dtd"
   xmlns:inkscape="http://www.inkscape.org/namespaces/inkscape"
   width="800"
   height="600"
   viewBox="0 0 800 600.00002"
   version="1.1"
   id="svg8"
   inkscape:version="0.92.4 (5da689c313, 2019-01-14)"
   sodipodi:docname="video-bg.svg">
  <defs
     id="defs2">
    <linearGradient
       inkscape:collect="always"
       id="linearGradient842">
      <stop
         style="stop-color:#808080;stop-opacity:1;"
         offset="0"
         id="stop838" />
      <stop
         style="stop-color:#808080;stop-opacity:0.1882353"
         offset="1"
         id="stop840" />
    </linearGradient>
    <linearGradient
       inkscape:collect="always"
       xlink:href="#linearGradient842"
       id="linearGradient844"
       x1="463.87192"
       y1="860.97864"
       x2="334.45868"
       y2="860.97864"
       gradientUnits="userSpaceOnUse" />
  </defs>
  <sodipodi:namedview
     id="base"
     pagecolor="#808080"
     bordercolor="#666666"
     borderopacity="1.0"
     inkscape:pageopacity="0"
     inkscape:pageshadow="2"
     inkscape:zoom="0.7"
     inkscape:cx="675.48205"
     inkscape:cy="180.51642"
     inkscape:document-units="px"
     inkscape:current-layer="layer1"
     showgrid="false"
     units="px"
     inkscape:window-width="1920"
     inkscape:window-height="1027"
     inkscape:window-x="-8"
     inkscape:window-y="22"
     inkscape:window-maximized="1" />
  <metadata
     id="metadata5">
    <rdf:RDF>
      <cc:Work
         rdf:about="">
        <dc:format>image/svg+xml</dc:format>
        <dc:type
           rdf:resource="http://purl.org/dc/dcmitype/StillImage" />
        <dc:title />
      </cc:Work>
    </rdf:RDF>
  </metadata>
  <g
     inkscape:label="Layer 1"
     inkscape:groupmode="layer"
     id="layer1"
     transform="translate(0,-522.51965)">
    <rect
       style="opacity:1;fill:#857b7b;fill-opacity:1;stroke:none;stroke-width:1;stroke-linecap:round;stroke-linejoin:round;stroke-miterlimit:4;stroke-dasharray:none;stroke-dashoffset:0;stroke-opacity:1;paint-order:normal"
       id="rect1074"
       width="1127.3302"
       height="571.74634"
       x="-1228.1458"
       y="398.99811" />
    <path
       style="fill:#68a4e9;fill-opacity:1;stroke:none;stroke-width:1;stroke-linecap:butt;stroke-linejoin:miter;stroke-miterlimit:4;stroke-dasharray:none;stroke-opacity:1"
       d="m -1105.7143,483.94823 c -19.7754,26.5141 -19.3129,59.9264 -18.5714,91.42857 6.7785,17.78161 13.3165,45.5764 37.1429,42.85714 9.3903,-8.25129 9.4557,-29.47056 7.1428,-47.14285 -0.3898,-17.72166 28.0672,-10.44067 30.7945,-2.70392 8.9265,8.10437 16.7759,12.6487 32.4042,11.27535 11.8038,-6.61416 11.5197,16.78979 26.6522,12.85714 18.61105,2.25931 28.4924,-7.57344 21.57768,-25.71429 -10.13551,-8.68907 -4.83147,-31.19695 8.57142,-17.14285 9.74317,3.29517 11.70209,16.25235 11.42858,28.57142 -2.52268,15.02641 11.06398,18.21337 19.85207,22.93112 16.99654,7.14801 49.02912,-4.91534 30.14793,-24.35969 -9.93505,-12.37141 -10.52788,-32.44136 7.14285,-31.42857 16.70894,15.26436 10.10901,40.9781 11.42857,62.85714 7.92126,7.17572 23.82494,3.36591 35.71429,4.28572 15.96588,-10.49994 10.18927,-33.96098 11.42857,-51.42857 -0.32729,-13.68591 -13.99589,-20.20842 -22.85714,-24.28572 -5.13624,-4.52489 -11.07475,-15.41088 -11.42857,-27.14285 1.3222,-18.26133 -5.61051,-33.68455 -17.14286,-47.14286 -22.29286,-16.0403 -49.91368,-17.19905 -78.57143,-21.42857 -25.12262,0.94912 -54.02696,-5.0794 -71.49646,15.78216 -8.2489,6.09586 -13.7995,13.70222 -21.3607,15.64641 -14.467,9.76303 -33.6202,5.5449 -50,11.42857 z"
       id="path973"
       inkscape:connector-curvature="0" />
    <path
       style="fill:#68a4e9;fill-opacity:1;stroke:none;stroke-width:1;stroke-linecap:butt;stroke-linejoin:miter;stroke-miterlimit:4;stroke-dasharray:none;stroke-opacity:1"
       d="m -1155.7143,726.80537 c -3.5674,-15.49186 -0.6958,-36.72372 14.2857,-51.42857 11.0382,-12.98667 23.5638,-14.61252 40,-18.57143 17.331,1.06172 32.5828,-10.15413 32.8572,-27.14285 5.6545,-13.25927 2.7091,-32.01724 15.7143,-38.57143 14.2666,-6.43611 20.1663,6.83339 30,14.28571 5.1069,3.64064 12.0914,11.11547 22.708,10 13.67848,2.11975 23.29334,-3.62413 33.00625,-7.14286 3.21537,-9.79437 16.80538,-4.13003 20,1.42858 2.3842,10.4162 8.4558,18.13999 20,18.57142 12.76116,1.30266 22.01822,-4.08866 31.42857,-7.14285 2.68632,1.04688 13.89486,9.41368 17.14286,12.85714 8.28477,5.61557 28.06804,3.53 21.42857,24.28571 -3.66093,7.95353 -9.58328,12.97363 -21.42857,15.71429 -18.34907,4.10646 -26.37779,-9.48212 -38.57143,-17.14286 -8.64315,-6.18989 -26.62014,-2.80261 -20,8.57143 5.47856,5.68797 14.60868,9.12231 22.85714,14.28572 11.15725,1.84926 21.15206,24.07413 8.57143,30 -11.24067,5.18101 -29.44876,3.81956 -37.77697,-2.70393 -8.85527,-7.68867 -24.41064,-20.99122 -32.07633,-31.68253 -6.20055,-2.98797 -10.5778,-13.7127 -15.86099,-19.89926 -7.52874,-5.84029 -28.05803,-19.59258 -41.42853,-7.14286 5.9366,12.80763 2.9338,21.75599 -11.4286,12.85715 -22.14,-3.62105 -21.4806,15.56279 -15.7143,28.57143 6.7249,14.61376 -4.7279,22.3168 -15.7143,28.57142 -7.196,3.0016 -16.2812,9.16185 -25.7143,12.85715 -12.7739,1.12416 -31.0845,5.6086 -42.8571,1.42857 -4.3941,0.48733 -5.6039,-5.0568 -11.4286,-5.71429 z"
       id="path975"
       inkscape:connector-curvature="0" />
    <path
       style="fill:#68a4e9;fill-opacity:1;stroke:none;stroke-width:1;stroke-linecap:butt;stroke-linejoin:miter;stroke-miterlimit:4;stroke-dasharray:none;stroke-opacity:1"
       d="m -1105.7143,768.23394 c 19.8811,-9.18858 36.4929,-23.76451 51.4286,-37.14285 12.1825,-9.15582 19.6237,-27.04376 14.2857,-40 0.3666,-22.70016 18.6843,-0.61731 30,-2.85715 5.0318,-9.07569 11.78338,-8.62277 15.71429,1.42858 6.27344,4.24025 7.49212,17.01907 14.28572,21.42857 9.51658,8.93175 23.36127,11.27568 38.57142,12.85714 16.77519,-2.44728 37.64178,6.63617 50,-2.85714 10.2657,-3.09876 4.82109,-21.74548 12.85715,-30 8.28945,-16.06555 23.60562,-6.05005 22.85714,10 -4.11003,15.6504 -22.18214,16.47282 -20,35.71428 -10.18906,11.60666 -24.96632,17.22936 -41.42857,18.57143 -13.23301,2.04948 -27.02935,-3.34127 -32.85715,-10 -8.43105,-8.04991 -25.70184,-1.99564 -21.42857,10 5.33854,8.43802 15.04783,30.22859 -7.14285,25.71429 -9.73719,-2.90163 -15.73943,-4.71176 -20,-11.42858 -10.16308,-10.4593 -8.59588,-27.68632 -1.42858,-37.14285 8.92386,-14.61234 -19.9325,-11.52132 -19.5089,-5.3125 -7.1228,9.48845 -0.6246,27.53103 -4.7846,39.4742 -1.8804,13.064 -7.909,14.42391 -15.7065,20.12401 -18.6597,6.96353 -41.6612,3.44518 -62.8571,4.28572 -8.0761,-2.5405 -16.098,-23.29298 -2.8572,-22.85715 z"
       id="path977"
       inkscape:connector-curvature="0" />
    <path
       style="fill:#68a4e9;fill-opacity:1;stroke:none;stroke-width:1;stroke-linecap:butt;stroke-linejoin:miter;stroke-miterlimit:4;stroke-dasharray:none;stroke-opacity:1"
       d="m -834.28571,468.23394 c -11.55367,26.06473 20.18043,34.70301 30,52.85715 7.04289,14.34486 4.88659,34.34936 1.42857,50 -2.6422,14.61301 -9.05777,27.36566 -18.57143,40 -5.58144,3.08621 -8.18887,11.56692 -14.28571,14.28571 -10.41348,1.93057 -12.15709,17.58313 -8.57143,27.14286 -2.62151,20.47177 9.16863,29.23103 27.14286,30 8.13998,3.86666 5.17483,20.16588 7.14285,30 -15.41294,-1.63915 -28.24261,10.96233 -14.28571,21.42857 11.31978,5.68387 32.31409,6.6363 34.28571,-5.71429 7.40576,-9.95702 -1.3739,-25.59198 0,-39.70179 5.39923,-9.46843 6.18907,-24.65331 -7.14285,-24.58392 -12.69105,-11.22767 7.29008,-17.33945 21.77009,-14.28571 11.12421,-2.49765 26.83689,1.69942 33.94419,-7.14286 6.79005,-15.54447 -11.13326,-22.82754 -24.28571,-21.42857 -7.91171,-6.46264 -31.24233,6.29721 -31.42857,-7.78259 -1.73869,-11.79806 6.13157,-18.26129 10,-23.64598 10.70634,-3.09118 22.36941,-10.67584 27.09055,-22.92477 3.66343,-11.99912 6.95018,-27.27936 5.76659,-42.78952 -3.4049,-15.18981 -17.86113,-26.68656 -31.42857,-35.71429 -11.3576,-5.61079 -26.14617,-14.43182 -31.42857,-21.42857 -2.28021,-3.51043 -9.22557,-4.76274 -17.14286,1.42857 z"
       id="path979"
       inkscape:connector-curvature="0" />
    <path
       style="fill:#68a4e9;fill-opacity:1;stroke:none;stroke-width:1;stroke-linecap:butt;stroke-linejoin:miter;stroke-miterlimit:4;stroke-dasharray:none;stroke-opacity:1"
       d="m -865.71428,753.94823 c -0.98657,-13.00936 0.569,-19.34253 7.14286,-27.14286 8.90199,-8.72176 17.60788,6.94479 18.57142,14.28572 -4.01363,16.39368 7.82599,20.55709 20,22.85714 14.30033,1.12593 31.98502,-6.03343 34.28572,7.14286 -0.89791,12.60978 -3.27111,30.45434 -18.42233,28.57142 -15.70922,0.86332 -29.10093,-1.34557 -37.29196,-11.42857 -9.07939,-5.46383 -23.21731,-3.0583 -30,2.85715 -6.60869,6.83139 -16.72312,12.53624 -29.70179,11.42857 -14.43626,-1.42578 -32.51679,3.58338 -42.1336,-4.29207 -3.37973,-1.95547 -8.28965,-16.30865 -3.87889,-24.27936 10.4244,-7.19465 31.91299,-3.32511 48.57143,-4.28572 14.51311,-3.35659 19.81554,-8.36173 32.85714,-15.71428 z"
       id="path981"
       inkscape:connector-curvature="0" />
    <path
       style="fill:#68a4e9;fill-opacity:1;stroke:none;stroke-width:1;stroke-linecap:butt;stroke-linejoin:miter;stroke-miterlimit:4;stroke-dasharray:none;stroke-opacity:1"
       d="m -718.01876,502.63263 c -7.52972,11.70014 -9.96313,30.20543 -12.12183,45.45686 -3.08687,13.05244 -8.58493,22.40831 -16.16244,31.31473 -0.78357,5.67081 -13.14941,8.17653 -8.08122,17.17259 6.38841,5.41522 16.81791,7.30279 21.21321,13.13199 5.47823,3.91336 14.46716,13.3975 13.13198,25.25381 3.33361,10.70508 -8.75421,20.69119 3.03046,23.23351 6.21526,3.61457 18.48808,10.15082 22.22335,2.0203 8.49583,-9.60517 -6.07042,-22.00265 -3.03046,-34.39318 -2.52331,-11.05083 3.28524,-19.93464 12.12184,-23.18551 5.64219,-5.54152 14.69339,-6.9325 11.11167,-18.18275 -5.54434,-10.60132 -27.96968,0.32669 -28.28427,-14.14213 -5.33721,-13.24826 -1.21985,-30.25505 -6.06091,-43.43656 -3.75447,-9.79591 5.12375,-26.67803 -9.09138,-24.24366 z"
       id="path985"
       inkscape:connector-curvature="0" />
    <path
       style="fill:#68a4e9;fill-opacity:1;stroke:none;stroke-width:1;stroke-linecap:butt;stroke-linejoin:miter;stroke-miterlimit:4;stroke-dasharray:none;stroke-opacity:1"
       d="m -770.49543,680.26178 c -2.66706,13.47429 4.31811,24.5939 0,37.46571 -5.09179,9.39876 -1.91378,27.45486 0.78053,37.46571 0.74321,12.66116 -0.0261,25.54575 -5.46375,34.34356 -3.50314,8.15868 -0.65707,17.75145 4.68322,19.51339 7.06297,5.8948 16.73317,14.16643 24.1966,5.46375 5.84504,-12.49669 -1.5084,-25.82351 -2.34161,-38.24624 -2.12136,-10.57244 5.57968,-17.61345 10.14696,-22.63554 -1.07983,-12.16263 -6.4468,-24.99513 -9.36642,-35.90463 1.26763,-8.14548 12.50264,-7.77026 20.29392,-10.14696 13.50822,0.14031 27.61247,-0.20404 36.68518,6.24428 12.53287,4.2733 26.45467,-1.22767 37.4657,-6.24428 7.51656,-3.56287 8.39862,-17.29433 2.34161,-20.29392 -3.64304,-7.64168 -16.53432,-5.60889 -17.95232,-2.34161 -14.56521,6.65905 -29.0989,-5.77545 -46.28553,-3.12214 -17.33457,0.0306 -33.24164,-2.51666 -50.50088,-0.78054 h -2.34161 z"
       id="path987"
       inkscape:connector-curvature="0" />
    <path
       style="fill:#68a4e9;fill-opacity:1;stroke:none;stroke-width:1;stroke-linecap:butt;stroke-linejoin:miter;stroke-miterlimit:4;stroke-dasharray:none;stroke-opacity:1"
       d="m -672.67292,624.17069 c -3.89467,9.11724 0.71222,17.40972 6.0512,20.55866 0.82945,9.52078 2.88653,17.76096 21.18162,12.30854 8.3175,-3.23871 7.8499,-9.52472 17.8422,-8.45157 6.47674,4.64361 17.17035,6.70682 27.23282,6.57344 2.21732,10.21917 7.21191,14.56164 17.8422,16.90314 22.07776,-0.032 44.47555,-0.50447 65.7344,1.87812 6.3331,-5.12152 19.40795,-10.94054 28.17189,-4.69531 11.28287,-3.72423 15.78225,-11.50222 13.14688,-23.47657 -2.77037,-9.14337 -6.27119,-17.65612 -16.90313,-20.65939 -9.25605,-2.73845 -17.01115,-0.11934 -21.59845,4.69531 -6.21182,6.42742 -19.08328,1.42885 -24.41563,-3.75625 -5.41158,-8.55096 -3.20558,-28.04162 4.69531,-32.8672 8.95368,-8.11562 30.91686,0.8512 33.80626,-11.26876 9.24484,-7.22426 10.27692,-19.51428 -3.75625,-23.47657 -8.93955,-7.36643 -16.18345,-9.47085 -29.11095,-8.45156 -7.88927,3.93418 -9.75567,6.04045 -16.90313,13.14687 -5.71763,5.18934 -7.76118,13.38569 -13.14688,15.96408 -1.62146,4.35532 -11.60322,10.39966 -15.96407,1.87812 -6.39262,-8.45448 1.98166,-25.96089 -7.77992,-30.99326 -7.26979,-5.16657 -22.28269,-0.48016 -26.96541,9.39481 1.61039,18.9607 11.85528,36.96085 29.11095,46.95315 4.87495,3.24447 10.98041,8.22882 14.08594,14.08595 6.85118,13.87063 -9.02753,17.43444 -18.78126,10.32969 -11.93825,-2.73557 -15.52427,-13.77005 -17.84219,-24.41564 -1.6017,-6.87126 -9.46131,-11.39164 -14.08594,-14.08594 -12.15608,-0.19453 -13.75443,8.74953 -15.96408,19.72032 -3.70721,8.60269 -10.2942,10.32568 -22.35916,9.39063 -5.68898,-0.63889 -8.15198,1.27447 -13.32522,2.81719 z"
       id="path991"
       inkscape:connector-curvature="0" />
    <path
       style="fill:#68a4e9;fill-opacity:1;stroke:none;stroke-width:1;stroke-linecap:butt;stroke-linejoin:miter;stroke-miterlimit:4;stroke-dasharray:none;stroke-opacity:1"
       d="m -685.69387,499.60217 c -8.04475,9.38021 -5.61317,27.20871 2.0203,37.37564 3.04954,8.27363 11.46519,15.76198 21.2132,17.1726 3.58933,4.1307 9.6555,12.16476 11.11168,18.18274 1.39085,10.4883 21.35724,5.09652 18.18275,-4.04061 0.40472,-11.04367 -2.50916,-25.40595 6.06091,-28.28427 5.202,-2.49962 6.6244,-15.56896 4.04061,-22.22336 -4.43832,-5.18464 -7.78014,-8.26627 -12.12183,-11.11167 -7.7553,-6.22722 -16.04499,-9.43679 -28.28427,-8.08122 -6.43218,-1.2574 -16.52587,-2.49357 -22.22335,1.01015 z"
       id="path993"
       inkscape:connector-curvature="0" />
    <path
       style="fill:#68a4e9;fill-opacity:1;stroke:none;stroke-width:1;stroke-linecap:butt;stroke-linejoin:miter;stroke-miterlimit:4;stroke-dasharray:none;stroke-opacity:1"
       d="m -584.40101,506.78782 c 7.36391,4.36356 13.85818,9.33496 11.26875,21.03975 -5.79534,8.46891 2.25965,16.92322 13.14689,13.70557 7.54983,-2.25752 9.70596,-6.71174 18.78125,-8.45156 7.07744,-3.23619 15.89278,-5.61771 17.8422,-10.32969 5.89975,-2.55829 6.03622,-17.4907 -1.87813,-21.59844 -8.06698,-10.61156 -25.46184,-4.3325 -36.62344,-2.8172 -8.54831,3.50805 -15.99218,1.46301 -22.53752,8.45157 z"
       id="path997"
       inkscape:connector-curvature="0" />
    <path
       style="fill:#68a4e9;fill-opacity:1;stroke:none;stroke-width:1;stroke-linecap:butt;stroke-linejoin:miter;stroke-miterlimit:4;stroke-dasharray:none;stroke-opacity:1"
       d="m -679.26575,737.36284 c -13.79699,-6.06185 -31.84424,-13.58619 -46.55066,-10.4762 -5.40124,8.95918 11.82755,18.82577 4.36172,27.54941 -8.03265,6.15808 -7.43876,21.00105 -11.37928,32.18664 3.3965,8.25645 15.88018,9.49464 25.65454,12.72306 7.5827,-7.9713 -1.02559,-18.91932 0.50708,-28.36448 -3.75939,-14.47886 14.00821,-13.17237 19.99305,-16.61085 4.47416,-4.308 9.68017,-10.83903 7.41355,-17.00758 z"
       id="path999"
       inkscape:connector-curvature="0" />
    <path
       style="fill:#68a4e9;fill-opacity:1;stroke:none;stroke-width:0.82381517;stroke-linecap:butt;stroke-linejoin:miter;stroke-miterlimit:4;stroke-dasharray:none;stroke-opacity:1"
       d="m -646.63173,721.15745 c -13.53039,-4.24062 -17.79407,13.30935 -22.77061,22.70055 -0.59186,10.76179 -2.04993,24.37838 1.33266,33.88002 -5.32545,4.20121 -15.76126,5.16086 -20.0475,12.81331 -7.41735,9.74108 4.1999,30.46875 17.12949,22.83476 15.3128,-1.26785 29.59592,-16.5912 23.3684,-31.70371 -3.13139,-11.86206 12.96186,-20.19398 4.48096,-32.21278 -1.57727,-8.26241 -5.70337,-17.07054 0.36464,-24.85877 -1.48087,-1.02446 -1.73662,-2.80216 -3.85804,-3.45338 z"
       id="path1001"
       inkscape:connector-curvature="0" />
    <path
       style="fill:#68a4e9;fill-opacity:1;stroke:none;stroke-width:1;stroke-linecap:butt;stroke-linejoin:miter;stroke-miterlimit:4;stroke-dasharray:none;stroke-opacity:1"
       d="m -345.08817,784.26199 c 15.69217,-29.44501 12.92135,-64.7813 4.84406,-95.70897 -7.20109,-16.43998 -20.93214,-43.75945 -42.2083,-33.40229 -6.35807,9.69016 -2.89891,32.84802 1.18225,50.26082 -4.66078,13.46433 -27.84383,8.8388 -31.53464,1.2186 -10.5545,-6.61927 -23.84713,-10.3199 -39.3546,-3.52708 -4.6112,-9.98161 -22.63663,-16.92085 -35.65718,-8.32959 -12.62114,3.68348 -7.06421,22.87581 1.21861,31.53464 10.7222,15.03349 -10.65735,18.47567 -15.67466,9.24723 -12.68014,-5.63641 -7.17096,-26.3893 -15.1094,-35.49745 -8.73436,-10.15789 -23.35104,-9.53883 -38.49049,-7.96128 -31.7117,9.97711 3.88451,31.42458 3.61293,49.95111 -2.3185,9.17002 -20.42784,10.56098 -23.58727,-4.13641 -12.46166,-13.16903 2.38457,-48.56206 -18.14778,-50.94262 -33.32915,-6.4741 -41.09929,22.74623 -32.54001,48.88896 -1.75565,17.50959 14.96716,24.14428 25.30165,28.40361 7.35049,1.95214 13.03076,12.85127 16.06504,23.84208 0.90977,18.85912 9.6598,33.8078 23.26184,45.95593 24.17482,13.03238 51.71447,10.62039 80.67837,11.12 23.35811,-4.14819 51.24762,-1.76531 66.34156,-21.5904 8.23337,-8.78082 13.73362,-17.97017 21.68872,-21.54747 13.05854,-11.37307 32.69858,-10.10878 48.1093,-17.77942 z"
       id="path1003"
       inkscape:connector-curvature="0" />
    <path
       style="fill:#68a4e9;fill-opacity:1;stroke:none;stroke-width:1;stroke-linecap:butt;stroke-linejoin:miter;stroke-miterlimit:4;stroke-dasharray:none;stroke-opacity:1"
       d="m -582.60009,858.94332 c 14.74049,-3.1724 27.09361,-0.046 31.17952,11.4856 -4.13653,11.7105 -17.45669,12.0153 -28.70013,15.5438 -12.91717,8.1591 -6.57123,31.9799 -4.22929,47.7287 -5.52517,8.4006 -22.7505,8.5572 -32.85028,1.5788 -8.44752,-4.341 -7.43871,-30.3241 -3.52334,-38.4102 4.77707,-9.0599 11.36491,-17.9517 7.08733,-32.2106 -5.93166,-5.1105 -12.13747,-14.22545 -17.73651,-21.32614 -4.59395,-15.68456 -3.73735,-34.23573 -6.12041,-51.08306 4.52986,-8.50124 9.6185,-14.45935 25.98547,-13.86018 7.21722,5.55604 7.67558,19.2361 8.69572,32.24092 0.16889,13.63167 3.60074,27.1578 10.37139,34.86937 3.80315,1.2838 3.93906,10.38709 9.84053,13.44299 z"
       id="path1005"
       inkscape:connector-curvature="0" />
    <path
       style="fill:#68a4e9;fill-opacity:1;stroke:none;stroke-width:1px;stroke-linecap:butt;stroke-linejoin:miter;stroke-opacity:1"
       d="m -474.57199,583.85603 c -3.45184,8.38298 -11.6779,20.55826 -3.03046,24.24366 5.70371,3.24567 11.93703,7.8954 13.13198,17.1726 0.68348,12.45438 0.56548,25.24076 2.02031,37.37564 4.55949,3.22456 9.29517,9.4477 15.15228,14.14214 6.55962,5.6604 16.33373,2.35742 20.20306,-4.04061 2.77867,-8.25534 9.49599,-7.34669 15.15228,-3.03046 13.94086,3.64054 9.6928,-16.63397 5.05077,-22.22336 -3.90054,-7.16651 -9.85606,-20.94801 4.04061,-21.2132 9.93885,-1.47376 10.62379,-14.2551 8.08122,-25.25381 -2.3103,-12.20121 -28.42231,-10.4156 -34.34519,-2.02031 -5.13055,5.6602 -0.86338,16.52886 -8.08122,18.18275 -11.4559,7.95123 -10.65814,-10.39536 -9.09137,-20.29905 0.2204,-9.90734 1.78288,-25.89918 -12.12183,-23.13751 -6.17947,1.4375 -10.34964,3.57059 -16.16244,10.10152 z"
       id="path1007"
       inkscape:connector-curvature="0" />
    <path
       style="fill:#68a4e9;fill-opacity:1;stroke:none;stroke-width:1px;stroke-linecap:butt;stroke-linejoin:miter;stroke-opacity:1"
       d="m -375.57705,588.9068 c -7.01238,14.62196 2.57196,30.78747 16.16245,33.33503 10.54863,5.64998 23.91683,12.0855 21.2132,27.27412 1.26714,8.66773 10.78304,13.59061 13.13198,21.2132 3.81429,5.87398 9.65068,20.13447 13.13198,8.08122 3.42152,-6.97089 15.02765,-8.01712 20.20306,-13.13198 8.16412,-1.90365 8.89988,-18.66122 -1.01016,-19.1929 -8.42244,-6.19299 -7.87558,-17.65571 -16.21364,-27.28849 -3.53681,-7.71064 -8.29441,-13.74016 -16.11124,-21.19883 -7.00786,-4.34696 -16.36958,-9.32695 -20.20305,-13.13198 -4.55017,-6.05526 -15.83912,-15.7425 -25.25381,-10.10153 -3.46622,0.85538 -5.7108,8.43946 -5.05077,14.14214 z"
       id="path1009"
       inkscape:connector-curvature="0" />
    <path
       style="fill:#68a4e9;fill-opacity:1;stroke:none;stroke-width:1px;stroke-linecap:butt;stroke-linejoin:miter;stroke-opacity:1"
       d="m -495.7852,507.08444 c -4.94663,10.8624 -5.48939,26.63977 6.06092,30.30458 5.47211,3.29698 11.52871,7.80733 10.10152,18.27874 4.37388,8.40655 22.49238,1.87275 32.37288,3.94461 12.19271,-1.74438 12.47157,15.02464 24.19567,14.14214 10.56808,1.40671 28.6635,6.14065 36.36549,-3.03046 2.65808,-8.905 9.47899,-17.47419 3.03045,-27.27412 -5.89376,-6.301 -16.19673,-2.94055 -21.2132,-7.07107 -9.85706,-2.54628 -25.0591,-1.57483 -26.26396,-11.11167 0.42072,-12.01161 13.33096,-15.47811 13.13198,-27.27412 -1.0112,-12.71041 4.92146,-34.41528 -12.12183,-32.32489 -11.9894,6.98118 -17.73639,13.76614 -16.16244,28.38028 -0.58095,9.79691 -7.22575,13.00812 -12.12183,17.07659 -10.57999,1.56532 -18.90131,-4.15512 -32.32488,-2.02031 -3.55689,1.46717 3.46232,-7.38498 -5.05077,-2.0203 z"
       id="path1011"
       inkscape:connector-curvature="0" />
    <path
       style="fill:#68a4e9;fill-opacity:1;stroke:none;stroke-width:0.87893397px;stroke-linecap:butt;stroke-linejoin:miter;stroke-opacity:1"
       d="m -307.31227,563.44018 c 9.16346,3.31067 13.28251,12.20786 23.08429,17.75715 6.67997,5.34639 12.79009,21.83514 23.97215,18.645 13.1997,-14.32404 6.80632,-34.72795 0,-50.60786 -12.5247,-10.37475 -13.38371,-26.59932 -19.53286,-39.95359 -14.13966,-13.76421 -35.78426,-11.42954 -52.38358,-15.98143 -12.80199,-7.47642 -33.35769,-11.08176 -50.59779,-11.54214 -15.53738,-2.97586 -18.39702,20.7738 -12.44009,29.29929 9.60533,9.85043 25.87083,9.5495 29.29929,21.30857 0.33826,13.00868 7.07118,18.33102 16.86929,24.86001 6.099,5.04777 20.0249,7.32825 26.63572,3.55143 7.47832,-1.89662 9.06496,6.6218 15.09358,2.66357 z"
       id="path1013"
       inkscape:connector-curvature="0" />
    <path
       style="fill:#68a4e9;fill-opacity:1;stroke:none;stroke-width:0.82109958px;stroke-linecap:butt;stroke-linejoin:miter;stroke-opacity:1"
       d="m -268.03791,716.57501 c -15.01031,-0.47174 -36.9862,-7.25891 -46.49044,6.64728 -4.47033,16.7889 2.43849,36.4122 -4.93458,52.24266 -2.77016,10.27535 2.74639,26.24301 -10.78267,27.37139 -12.22873,8.65903 -29.10038,9.07424 -41.47178,15.75927 -8.74275,12.34373 -7.33423,37.06431 10.78266,42.30121 12.565,-1.0816 22.26813,-9.4021 36.90461,-2.4883 10.5718,-3.2467 2.00712,-23.41981 12.0321,-27.37137 11.30366,-5.11343 30.37517,-3.75754 36.49518,-19.90646 10.05225,-24.63924 4.98766,-53.60874 7.46492,-79.62583 1.02344,-3.12406 3.62418,-10.97345 0,-14.92985 z"
       id="path1015"
       inkscape:connector-curvature="0" />
    <rect
       y="516.14099"
       x="-5.2886162"
       height="617.46063"
       width="820.18732"
       id="rect832"
       style="opacity:1;fill:#606060;fill-opacity:1;stroke:none;stroke-width:0.88640845;stroke-linecap:round;stroke-linejoin:round;stroke-miterlimit:4;stroke-dasharray:none;stroke-dashoffset:0;stroke-opacity:1;paint-order:normal" />
    <text
       xml:space="preserve"
       style="font-style:normal;font-variant:normal;font-weight:normal;font-stretch:normal;font-size:64px;line-height:1.25;font-family:'Open Sans';-inkscape-font-specification:'Open Sans';text-align:center;letter-spacing:0px;word-spacing:0px;text-anchor:middle;fill:url(#linearGradient844);fill-opacity:1;stroke:none"
       x="399.98438"
       y="865.84778"
       id="text836"><tspan
         sodipodi:role="line"
         id="tspan834"
         x="399.98438"
         y="865.84778"
         style="font-style:normal;font-variant:normal;font-weight:normal;font-stretch:normal;font-family:'DM Mono';-inkscape-font-specification:'DM Mono';fill:url(#linearGradient844);fill-opacity:1">....</tspan></text>
  </g>
</svg>
